<?xml version="1.0" encoding="UTF-8"?>
<svg id="Layer_2" data-name="Layer 2" xmlns="http://www.w3.org/2000/svg" xmlns:xlink="http://www.w3.org/1999/xlink" viewBox="0 0 638.7 193.6">
  <defs>
    <style>
      .cls-1 {
        fill: url(#New_Gradient_Swatch_copy_9);
      }

      .cls-2 {
        fill: url(#New_Gradient_Swatch_copy_10);
      }

      .cls-3 {
        fill: url(#New_Gradient_Swatch_copy_8);
      }

      .cls-4 {
        fill: url(#New_Gradient_Swatch_copy_7);
      }

      .cls-5 {
        fill: url(#New_Gradient_Swatch_copy_11);
      }

      .cls-6 {
        fill: url(#New_Gradient_Swatch_copy_12);
      }
    </style>
    <linearGradient id="New_Gradient_Swatch_copy_9" data-name="New Gradient Swatch copy 9" x1="330.85" y1="187.6" x2="330.85" y2="3" gradientTransform="translate(-16 6)" gradientUnits="userSpaceOnUse">
      <stop offset="0" stop-color="#2de5ef"/>
      <stop offset=".2" stop-color="#2de5ef"/>
      <stop offset=".2" stop-color="#2de5ef" stop-opacity="0"/>
      <stop offset=".25" stop-color="#2de5ef" stop-opacity="0"/>
      <stop offset=".25" stop-color="#2de5ef"/>
      <stop offset=".47" stop-color="#2de5ef"/>
      <stop offset=".47" stop-color="#2de5ef" stop-opacity="0"/>
      <stop offset=".89" stop-color="#2de5ef" stop-opacity="0"/>
      <stop offset=".89" stop-color="#2de5ef"/>
      <stop offset=".92" stop-color="#2de5ef"/>
      <stop offset=".92" stop-color="#2de5ef" stop-opacity="0"/>
    </linearGradient>
    <linearGradient id="New_Gradient_Swatch_copy_7" data-name="New Gradient Swatch copy 7" x1="330.85" y1="187.6" x2="330.85" y2="3" gradientTransform="translate(-4 4)" gradientUnits="userSpaceOnUse">
      <stop offset="0" stop-color="#ec397a"/>
      <stop offset=".2" stop-color="#ec397a"/>
      <stop offset=".2" stop-color="#ec397a" stop-opacity="0"/>
      <stop offset=".25" stop-color="#ec397a" stop-opacity="0"/>
      <stop offset=".25" stop-color="#ec397a"/>
      <stop offset=".47" stop-color="#ec397a"/>
      <stop offset=".47" stop-color="#ec397a" stop-opacity="0"/>
      <stop offset=".89" stop-color="#ec397a" stop-opacity="0"/>
      <stop offset=".89" stop-color="#ec397a"/>
      <stop offset=".92" stop-color="#ec397a"/>
      <stop offset=".92" stop-color="#ec397a" stop-opacity="0"/>
    </linearGradient>
    <linearGradient id="New_Gradient_Swatch_copy_12" data-name="New Gradient Swatch copy 12" x1="330.85" y1="187.6" x2="330.85" y2="3" gradientTransform="translate(5)" gradientUnits="userSpaceOnUse">
      <stop offset="0" stop-color="#fffbe8"/>
      <stop offset=".2" stop-color="#fffbe8"/>
      <stop offset=".2" stop-color="#fffbe8" stop-opacity="0"/>
      <stop offset=".25" stop-color="#fffbe8" stop-opacity="0"/>
      <stop offset=".25" stop-color="#fffbe8"/>
      <stop offset=".47" stop-color="#fffbe8"/>
      <stop offset=".47" stop-color="#fffbe8" stop-opacity="0"/>
      <stop offset=".89" stop-color="#fffbe8" stop-opacity="0"/>
      <stop offset=".89" stop-color="#fffbe8"/>
      <stop offset=".92" stop-color="#fffbe8"/>
      <stop offset=".92" stop-color="#fffbe8" stop-opacity="0"/>
    </linearGradient>
    <linearGradient id="New_Gradient_Swatch_copy_10" data-name="New Gradient Swatch copy 10" x1="330.85" y1="187.6" x2="330.85" y2="3" gradientTransform="translate(-2 3)" gradientUnits="userSpaceOnUse">
      <stop offset=".21" stop-color="#2de5ef" stop-opacity="0"/>
      <stop offset=".21" stop-color="#2de5ef"/>
      <stop offset=".25" stop-color="#2de5ef"/>
      <stop offset=".25" stop-color="#2de5ef" stop-opacity="0"/>
      <stop offset=".53" stop-color="#2de5ef" stop-opacity="0"/>
      <stop offset=".53" stop-color="#2de5ef"/>
      <stop offset=".89" stop-color="#2de5ef"/>
      <stop offset=".89" stop-color="#2de5ef" stop-opacity="0"/>
      <stop offset=".92" stop-color="#2de5ef" stop-opacity="0"/>
      <stop offset=".92" stop-color="#2de5ef"/>
      <stop offset="1" stop-color="#2de5ef"/>
    </linearGradient>
    <linearGradient id="New_Gradient_Swatch_copy_8" data-name="New Gradient Swatch copy 8" x1="330.85" y1="187.6" x2="330.85" y2="3" gradientTransform="translate(-28 -3)" gradientUnits="userSpaceOnUse">
      <stop offset=".21" stop-color="#ec397a" stop-opacity="0"/>
      <stop offset=".21" stop-color="#ec397a"/>
      <stop offset=".25" stop-color="#ec397a"/>
      <stop offset=".25" stop-color="#ec397a" stop-opacity="0"/>
      <stop offset=".53" stop-color="#ec397a" stop-opacity="0"/>
      <stop offset=".53" stop-color="#ec397a"/>
      <stop offset=".89" stop-color="#ec397a"/>
      <stop offset=".89" stop-color="#ec397a" stop-opacity="0"/>
      <stop offset=".92" stop-color="#ec397a" stop-opacity="0"/>
      <stop offset=".92" stop-color="#ec397a"/>
      <stop offset="1" stop-color="#ec397a"/>
    </linearGradient>
    <linearGradient id="New_Gradient_Swatch_copy_11" data-name="New Gradient Swatch copy 11" x1="330.85" y1="187.6" x2="330.85" y2="3" gradientTransform="translate(-15)" gradientUnits="userSpaceOnUse">
      <stop offset=".21" stop-color="#fffbe8" stop-opacity="0"/>
      <stop offset=".21" stop-color="#fffbe8"/>
      <stop offset=".25" stop-color="#fffbe8"/>
      <stop offset=".25" stop-color="#fffbe8" stop-opacity="0"/>
      <stop offset=".53" stop-color="#fffbe8" stop-opacity="0"/>
      <stop offset=".53" stop-color="#fffbe8"/>
      <stop offset=".89" stop-color="#fffbe8"/>
      <stop offset=".89" stop-color="#fffbe8" stop-opacity="0"/>
      <stop offset=".92" stop-color="#fffbe8" stop-opacity="0"/>
      <stop offset=".92" stop-color="#fffbe8"/>
      <stop offset="1" stop-color="#fffbe8"/>
    </linearGradient>
  </defs>
  <g id="Layer_2-2" data-name="Layer 2">
    <g>
      <g>
        <path class="cls-1" d="m12,191.06c1.79-11.19,4.27-20.85,8.02-28.99,3.75-8.14,9.25-17.04,16.64-26.7,8.49-11.02,17.19-22.04,26.07-33.06,14.69-18.31,19.47-25.94,19.67-35.09.29-12.46-7.33-18.56-22.74-18.56-13.85,0-27.22,4.83-40.33,14.24.03-12.21.03-24.41-.03-36.62,13.82-10.93,34.28-17.29,53.98-17.29,34.56,0,58.69,18.82,57.94,50.6-.25,10.43-2.84,20.09-7.7,28.73-4.87,8.9-12.18,19.07-21.86,30.77-8.97,10.93-17.69,21.87-26.12,32.8h55.26c-.08,13.05.41,26.11,1.92,39.16H12Z"/>
        <path class="cls-1" d="m170.08,101.56c5.92-57.97,26.3-92.56,68.99-92.56,21.42,0,40.41,8.14,53.81,24.41,13.25,16.53,18.2,39.16,15.13,68.15-7.55,57.97-26.17,92.05-68.95,92.05-43.93,0-74.88-34.07-68.99-92.05Zm65.73,50.35c14.78,0,22.08-16.78,25.55-50.35,3.5-33.82-4.05-50.6-19.02-50.6-14.95,0-22.38,16.78-25.59,50.6-3.19,33.56,4.27,50.35,19.06,50.35Z"/>
        <path class="cls-1" d="m337.45,191.06c-.2-11.19,1.73-20.85,5.33-28.99,3.61-8.14,9.44-17.04,17.45-26.7,9.2-11.02,18.8-22.04,28.37-33.06,15.8-18.31,20.68-25.94,21.18-35.09.64-12.46-6.86-18.56-21.88-18.56-13.54,0-26.48,4.83-39.7,14.24.57-12.21.56-24.41-.61-36.62,12.49-10.93,31.82-17.29,51.62-17.29,34.9,0,59.61,18.82,58.46,50.6-.32,10.43-2.99,20.09-7.97,28.73-5,8.9-12.55,19.07-22.71,30.77-9.4,10.93-18.68,21.87-27.38,32.8h56.65c-.1,13.05.5,26.11,2.32,39.16h-121.13Z"/>
        <path class="cls-1" d="m567.33,11.54h50.36v179.52h-43.46c-.38-9.75-.53-19.49-.51-29.24h-82.08c-.19-10.43,1.62-19.83,5.07-28.48,3.43-8.39,9.5-19.32,18.21-32.8,19.26-29.67,36.86-59.33,52.41-89Zm8.15,48.06c-12.34,24.07-25.92,48.14-39.27,72.21,12.55,0,25.12,0,37.7,0,.42-24.07,1.33-48.14,1.57-72.21Z"/>
      </g>
      <g>
        <path class="cls-4" d="m24,189.06c1.79-11.19,4.27-20.85,8.02-28.99,3.75-8.14,9.25-17.04,16.64-26.7,8.49-11.02,17.19-22.04,26.07-33.06,14.69-18.31,19.47-25.94,19.67-35.09.29-12.46-7.33-18.56-22.74-18.56-13.85,0-27.22,4.83-40.33,14.24.03-12.21.03-24.41-.03-36.62,13.82-10.93,34.28-17.29,53.98-17.29,34.56,0,58.69,18.82,57.94,50.6-.25,10.43-2.84,20.09-7.7,28.73-4.87,8.9-12.18,19.07-21.86,30.77-8.97,10.93-17.69,21.87-26.12,32.8h55.26c-.08,13.05.41,26.11,1.92,39.16H24Z"/>
        <path class="cls-4" d="m182.08,99.56c5.92-57.97,26.3-92.56,68.99-92.56,21.42,0,40.41,8.14,53.81,24.41,13.25,16.53,18.2,39.16,15.13,68.15-7.55,57.97-26.17,92.05-68.95,92.05-43.93,0-74.88-34.07-68.99-92.05Zm65.73,50.35c14.78,0,22.08-16.78,25.55-50.35,3.5-33.82-4.05-50.6-19.02-50.6-14.95,0-22.38,16.78-25.59,50.6-3.19,33.56,4.27,50.35,19.06,50.35Z"/>
        <path class="cls-4" d="m349.45,189.06c-.2-11.19,1.73-20.85,5.33-28.99,3.61-8.14,9.44-17.04,17.45-26.7,9.2-11.02,18.8-22.04,28.37-33.06,15.8-18.31,20.68-25.94,21.18-35.09.64-12.46-6.86-18.56-21.88-18.56-13.54,0-26.48,4.83-39.7,14.24.57-12.21.56-24.41-.61-36.62,12.49-10.93,31.82-17.29,51.62-17.29,34.9,0,59.61,18.82,58.46,50.6-.32,10.43-2.99,20.09-7.97,28.73-5,8.9-12.55,19.07-22.71,30.77-9.4,10.93-18.68,21.87-27.38,32.8h56.65c-.1,13.05.5,26.11,2.32,39.16h-121.13Z"/>
        <path class="cls-4" d="m579.33,9.54h50.36v179.52h-43.46c-.38-9.75-.53-19.49-.51-29.24h-82.08c-.19-10.43,1.62-19.83,5.07-28.48,3.43-8.39,9.5-19.32,18.21-32.8,19.26-29.67,36.86-59.33,52.41-89Zm8.15,48.06c-12.34,24.07-25.92,48.14-39.27,72.21,12.55,0,25.12,0,37.7,0,.42-24.07,1.33-48.14,1.57-72.21Z"/>
      </g>
      <g>
        <path class="cls-6" d="m33,185.06c1.79-11.19,4.27-20.85,8.02-28.99,3.75-8.14,9.25-17.04,16.64-26.7,8.49-11.02,17.19-22.04,26.07-33.06,14.69-18.31,19.47-25.94,19.67-35.09.29-12.46-7.33-18.56-22.74-18.56-13.85,0-27.22,4.83-40.33,14.24.03-12.21.03-24.41-.03-36.62C54.12,9.36,74.58,3,94.28,3c34.56,0,58.69,18.82,57.94,50.6-.25,10.43-2.84,20.09-7.7,28.73-4.87,8.9-12.18,19.07-21.86,30.77-8.97,10.93-17.69,21.87-26.12,32.8h55.26c-.08,13.05.41,26.11,1.92,39.16H33Z"/>
        <path class="cls-6" d="m191.08,95.56c5.92-57.97,26.3-92.56,68.99-92.56,21.42,0,40.41,8.14,53.81,24.41,13.25,16.53,18.2,39.16,15.13,68.15-7.55,57.97-26.17,92.05-68.95,92.05-43.93,0-74.88-34.07-68.99-92.05Zm65.73,50.35c14.78,0,22.08-16.78,25.55-50.35,3.5-33.82-4.05-50.6-19.02-50.6-14.95,0-22.38,16.78-25.59,50.6-3.19,33.56,4.27,50.35,19.06,50.35Z"/>
        <path class="cls-6" d="m358.45,185.06c-.2-11.19,1.73-20.85,5.33-28.99,3.61-8.14,9.44-17.04,17.45-26.7,9.2-11.02,18.8-22.04,28.37-33.06,15.8-18.31,20.68-25.94,21.18-35.09.64-12.46-6.86-18.56-21.88-18.56-13.54,0-26.48,4.83-39.7,14.24.57-12.21.56-24.41-.61-36.62,12.49-10.93,31.82-17.29,51.62-17.29,34.9,0,59.61,18.82,58.46,50.6-.32,10.43-2.99,20.09-7.97,28.73-5,8.9-12.55,19.07-22.71,30.77-9.4,10.93-18.68,21.87-27.38,32.8h56.65c-.1,13.05.5,26.11,2.32,39.16h-121.13Z"/>
        <path class="cls-6" d="m588.33,5.54h50.36v179.52h-43.46c-.38-9.75-.53-19.49-.51-29.24h-82.08c-.19-10.43,1.62-19.83,5.07-28.48,3.43-8.39,9.5-19.32,18.21-32.8,19.26-29.67,36.86-59.33,52.41-89Zm8.15,48.06c-12.34,24.07-25.92,48.14-39.27,72.21,12.55,0,25.12,0,37.7,0,.42-24.07,1.33-48.14,1.57-72.21Z"/>
      </g>
      <g>
        <path class="cls-2" d="m26,188.06c1.79-11.19,4.27-20.85,8.02-28.99,3.75-8.14,9.25-17.04,16.64-26.7,8.49-11.02,17.19-22.04,26.07-33.06,14.69-18.31,19.47-25.94,19.67-35.09.29-12.46-7.33-18.56-22.74-18.56-13.85,0-27.22,4.83-40.33,14.24.03-12.21.03-24.41-.03-36.62,13.82-10.93,34.28-17.29,53.98-17.29,34.56,0,58.69,18.82,57.94,50.6-.25,10.43-2.84,20.09-7.7,28.73-4.87,8.9-12.18,19.07-21.86,30.77-8.97,10.93-17.69,21.87-26.12,32.8h55.26c-.08,13.05.41,26.11,1.92,39.16H26Z"/>
        <path class="cls-2" d="m184.08,98.56c5.92-57.97,26.3-92.56,68.99-92.56,21.42,0,40.41,8.14,53.81,24.41,13.25,16.53,18.2,39.16,15.13,68.15-7.55,57.97-26.17,92.05-68.95,92.05-43.93,0-74.88-34.07-68.99-92.05Zm65.73,50.35c14.78,0,22.08-16.78,25.55-50.35,3.5-33.82-4.05-50.6-19.02-50.6-14.95,0-22.38,16.78-25.59,50.6-3.19,33.56,4.27,50.35,19.06,50.35Z"/>
        <path class="cls-2" d="m351.45,188.06c-.2-11.19,1.73-20.85,5.33-28.99,3.61-8.14,9.44-17.04,17.45-26.7,9.2-11.02,18.8-22.04,28.37-33.06,15.8-18.31,20.68-25.94,21.18-35.09.64-12.46-6.86-18.56-21.88-18.56-13.54,0-26.48,4.83-39.7,14.24.57-12.21.56-24.41-.61-36.62,12.49-10.93,31.82-17.29,51.62-17.29,34.9,0,59.61,18.82,58.46,50.6-.32,10.43-2.99,20.09-7.97,28.73-5,8.9-12.55,19.07-22.71,30.77-9.4,10.93-18.68,21.87-27.38,32.8h56.65c-.1,13.05.5,26.11,2.32,39.16h-121.13Z"/>
        <path class="cls-2" d="m581.33,8.54h50.36v179.52h-43.46c-.38-9.75-.53-19.49-.51-29.24h-82.08c-.19-10.43,1.62-19.83,5.07-28.48,3.43-8.39,9.5-19.32,18.21-32.8,19.26-29.67,36.86-59.33,52.41-89Zm8.15,48.06c-12.34,24.07-25.92,48.14-39.27,72.21,12.55,0,25.12,0,37.7,0,.42-24.07,1.33-48.14,1.57-72.21Z"/>
      </g>
      <g>
        <path class="cls-3" d="m0,182.06c1.79-11.19,4.27-20.85,8.02-28.99,3.75-8.14,9.25-17.04,16.64-26.7,8.49-11.02,17.19-22.04,26.07-33.06,14.69-18.31,19.47-25.94,19.67-35.09.29-12.46-7.33-18.56-22.74-18.56-13.85,0-27.22,4.83-40.33,14.24.03-12.21.03-24.41-.03-36.62C21.12,6.36,41.58,0,61.28,0c34.56,0,58.69,18.82,57.94,50.6-.25,10.43-2.84,20.09-7.7,28.73-4.87,8.9-12.18,19.07-21.86,30.77-8.97,10.93-17.69,21.87-26.12,32.8h55.26c-.08,13.05.41,26.11,1.92,39.16H0Z"/>
        <path class="cls-3" d="m158.08,92.56C164.01,34.58,184.38,0,227.08,0c21.42,0,40.41,8.14,53.81,24.41,13.25,16.53,18.2,39.16,15.13,68.15-7.55,57.97-26.17,92.05-68.95,92.05-43.93,0-74.88-34.07-68.99-92.05Zm65.73,50.35c14.78,0,22.08-16.78,25.55-50.35,3.5-33.82-4.05-50.6-19.02-50.6-14.95,0-22.38,16.78-25.59,50.6-3.19,33.56,4.27,50.35,19.06,50.35Z"/>
        <path class="cls-3" d="m325.45,182.06c-.2-11.19,1.73-20.85,5.33-28.99,3.61-8.14,9.44-17.04,17.45-26.7,9.2-11.02,18.8-22.04,28.37-33.06,15.8-18.31,20.68-25.94,21.18-35.09.64-12.46-6.86-18.56-21.88-18.56-13.54,0-26.48,4.83-39.7,14.24.57-12.21.56-24.41-.61-36.62C348.07,6.36,367.41,0,387.21,0c34.9,0,59.61,18.82,58.46,50.6-.32,10.43-2.99,20.09-7.97,28.73-5,8.9-12.55,19.07-22.71,30.77-9.4,10.93-18.68,21.87-27.38,32.8h56.65c-.1,13.05.5,26.11,2.32,39.16h-121.13Z"/>
        <path class="cls-3" d="m555.33,2.54h50.36v179.52h-43.46c-.38-9.75-.53-19.49-.51-29.24h-82.08c-.19-10.43,1.62-19.83,5.07-28.48,3.43-8.39,9.5-19.32,18.21-32.8,19.26-29.67,36.86-59.33,52.41-89Zm8.15,48.06c-12.34,24.07-25.92,48.14-39.27,72.21,12.55,0,25.12,0,37.7,0,.42-24.07,1.33-48.14,1.57-72.21Z"/>
      </g>
      <g>
        <path class="cls-5" d="m13,185.06c1.79-11.19,4.27-20.85,8.02-28.99,3.75-8.14,9.25-17.04,16.64-26.7,8.49-11.02,17.19-22.04,26.07-33.06,14.69-18.31,19.47-25.94,19.67-35.09.29-12.46-7.33-18.56-22.74-18.56-13.85,0-27.22,4.83-40.33,14.24.03-12.21.03-24.41-.03-36.62C34.12,9.36,54.58,3,74.28,3c34.56,0,58.69,18.82,57.94,50.6-.25,10.43-2.84,20.09-7.7,28.73-4.87,8.9-12.18,19.07-21.86,30.77-8.97,10.93-17.69,21.87-26.12,32.8h55.26c-.08,13.05.41,26.11,1.92,39.16H13Z"/>
        <path class="cls-5" d="m171.08,95.56C177.01,37.58,197.38,3,240.08,3c21.42,0,40.41,8.14,53.81,24.41,13.25,16.53,18.2,39.16,15.13,68.15-7.55,57.97-26.17,92.05-68.95,92.05-43.93,0-74.88-34.07-68.99-92.05Zm65.73,50.35c14.78,0,22.08-16.78,25.55-50.35,3.5-33.82-4.05-50.6-19.02-50.6-14.95,0-22.38,16.78-25.59,50.6-3.19,33.56,4.27,50.35,19.06,50.35Z"/>
        <path class="cls-5" d="m338.45,185.06c-.2-11.19,1.73-20.85,5.33-28.99,3.61-8.14,9.44-17.04,17.45-26.7,9.2-11.02,18.8-22.04,28.37-33.06,15.8-18.31,20.68-25.94,21.18-35.09.64-12.46-6.86-18.56-21.88-18.56-13.54,0-26.48,4.83-39.7,14.24.57-12.21.56-24.41-.61-36.62,12.49-10.93,31.82-17.29,51.62-17.29,34.9,0,59.61,18.82,58.46,50.6-.32,10.43-2.99,20.09-7.97,28.73-5,8.9-12.55,19.07-22.71,30.77-9.4,10.93-18.68,21.87-27.38,32.8h56.65c-.1,13.05.5,26.11,2.32,39.16h-121.13Z"/>
        <path class="cls-5" d="m568.33,5.54h50.36v179.52h-43.46c-.38-9.75-.53-19.49-.51-29.24h-82.08c-.19-10.43,1.62-19.83,5.07-28.48,3.43-8.39,9.5-19.32,18.21-32.8,19.26-29.67,36.86-59.33,52.41-89Zm8.15,48.06c-12.34,24.07-25.92,48.14-39.27,72.21,12.55,0,25.12,0,37.7,0,.42-24.07,1.33-48.14,1.57-72.21Z"/>
      </g>
    </g>
  </g>
</svg>