<?xml version="1.0" encoding="UTF-8"?>
<svg id="Layer_2" data-name="Layer 2" xmlns="http://www.w3.org/2000/svg" xmlns:xlink="http://www.w3.org/1999/xlink" viewBox="0 0 975.88 241.91">
  <defs>
    <style>
      .cls-1 {
        fill: url(#New_Gradient_Swatch_copy_9);
      }

      .cls-2 {
        fill: url(#New_Gradient_Swatch_copy_10);
      }

      .cls-3 {
        fill: url(#New_Gradient_Swatch_copy_8);
      }

      .cls-4 {
        fill: url(#New_Gradient_Swatch_copy_7);
      }

      .cls-5 {
        fill: url(#New_Gradient_Swatch_copy_11);
      }

      .cls-6 {
        fill: url(#New_Gradient_Swatch_copy_12);
      }
    </style>
    <linearGradient id="New_Gradient_Swatch_copy_9" data-name="New Gradient Swatch copy 9" x1="499.44" y1="235.91" x2="499.44" y2="3" gradientTransform="translate(-16 6)" gradientUnits="userSpaceOnUse">
      <stop offset="0" stop-color="#2de5ef"/>
      <stop offset=".2" stop-color="#2de5ef"/>
      <stop offset=".2" stop-color="#2de5ef" stop-opacity="0"/>
      <stop offset=".25" stop-color="#2de5ef" stop-opacity="0"/>
      <stop offset=".25" stop-color="#2de5ef"/>
      <stop offset=".47" stop-color="#2de5ef"/>
      <stop offset=".47" stop-color="#2de5ef" stop-opacity="0"/>
      <stop offset=".89" stop-color="#2de5ef" stop-opacity="0"/>
      <stop offset=".89" stop-color="#2de5ef"/>
      <stop offset=".92" stop-color="#2de5ef"/>
      <stop offset=".92" stop-color="#2de5ef" stop-opacity="0"/>
    </linearGradient>
    <linearGradient id="New_Gradient_Swatch_copy_7" data-name="New Gradient Swatch copy 7" x1="499.44" y1="235.91" x2="499.44" y2="3" gradientTransform="translate(-4 4)" gradientUnits="userSpaceOnUse">
      <stop offset="0" stop-color="#ec397a"/>
      <stop offset=".2" stop-color="#ec397a"/>
      <stop offset=".2" stop-color="#ec397a" stop-opacity="0"/>
      <stop offset=".25" stop-color="#ec397a" stop-opacity="0"/>
      <stop offset=".25" stop-color="#ec397a"/>
      <stop offset=".47" stop-color="#ec397a"/>
      <stop offset=".47" stop-color="#ec397a" stop-opacity="0"/>
      <stop offset=".89" stop-color="#ec397a" stop-opacity="0"/>
      <stop offset=".89" stop-color="#ec397a"/>
      <stop offset=".92" stop-color="#ec397a"/>
      <stop offset=".92" stop-color="#ec397a" stop-opacity="0"/>
    </linearGradient>
    <linearGradient id="New_Gradient_Swatch_copy_12" data-name="New Gradient Swatch copy 12" x1="499.44" y1="235.91" x2="499.44" y2="3" gradientTransform="translate(5)" gradientUnits="userSpaceOnUse">
      <stop offset="0" stop-color="#fffbe8"/>
      <stop offset=".2" stop-color="#fffbe8"/>
      <stop offset=".2" stop-color="#fffbe8" stop-opacity="0"/>
      <stop offset=".25" stop-color="#fffbe8" stop-opacity="0"/>
      <stop offset=".25" stop-color="#fffbe8"/>
      <stop offset=".47" stop-color="#fffbe8"/>
      <stop offset=".47" stop-color="#fffbe8" stop-opacity="0"/>
      <stop offset=".89" stop-color="#fffbe8" stop-opacity="0"/>
      <stop offset=".89" stop-color="#fffbe8"/>
      <stop offset=".92" stop-color="#fffbe8"/>
      <stop offset=".92" stop-color="#fffbe8" stop-opacity="0"/>
    </linearGradient>
    <linearGradient id="New_Gradient_Swatch_copy_10" data-name="New Gradient Swatch copy 10" x1="499.44" y1="235.91" x2="499.44" y2="3" gradientTransform="translate(-2 3)" gradientUnits="userSpaceOnUse">
      <stop offset=".21" stop-color="#2de5ef" stop-opacity="0"/>
      <stop offset=".21" stop-color="#2de5ef"/>
      <stop offset=".25" stop-color="#2de5ef"/>
      <stop offset=".25" stop-color="#2de5ef" stop-opacity="0"/>
      <stop offset=".53" stop-color="#2de5ef" stop-opacity="0"/>
      <stop offset=".53" stop-color="#2de5ef"/>
      <stop offset=".89" stop-color="#2de5ef"/>
      <stop offset=".89" stop-color="#2de5ef" stop-opacity="0"/>
      <stop offset=".92" stop-color="#2de5ef" stop-opacity="0"/>
      <stop offset=".92" stop-color="#2de5ef"/>
      <stop offset="1" stop-color="#2de5ef"/>
    </linearGradient>
    <linearGradient id="New_Gradient_Swatch_copy_8" data-name="New Gradient Swatch copy 8" x1="499.44" y1="235.91" x2="499.44" y2="3" gradientTransform="translate(-28 -3)" gradientUnits="userSpaceOnUse">
      <stop offset=".21" stop-color="#ec397a" stop-opacity="0"/>
      <stop offset=".21" stop-color="#ec397a"/>
      <stop offset=".25" stop-color="#ec397a"/>
      <stop offset=".25" stop-color="#ec397a" stop-opacity="0"/>
      <stop offset=".53" stop-color="#ec397a" stop-opacity="0"/>
      <stop offset=".53" stop-color="#ec397a"/>
      <stop offset=".89" stop-color="#ec397a"/>
      <stop offset=".89" stop-color="#ec397a" stop-opacity="0"/>
      <stop offset=".92" stop-color="#ec397a" stop-opacity="0"/>
      <stop offset=".92" stop-color="#ec397a"/>
      <stop offset="1" stop-color="#ec397a"/>
    </linearGradient>
    <linearGradient id="New_Gradient_Swatch_copy_11" data-name="New Gradient Swatch copy 11" x1="499.44" y1="235.91" x2="499.44" y2="3" gradientTransform="translate(-15)" gradientUnits="userSpaceOnUse">
      <stop offset=".21" stop-color="#fffbe8" stop-opacity="0"/>
      <stop offset=".21" stop-color="#fffbe8"/>
      <stop offset=".25" stop-color="#fffbe8"/>
      <stop offset=".25" stop-color="#fffbe8" stop-opacity="0"/>
      <stop offset=".53" stop-color="#fffbe8" stop-opacity="0"/>
      <stop offset=".53" stop-color="#fffbe8"/>
      <stop offset=".89" stop-color="#fffbe8"/>
      <stop offset=".89" stop-color="#fffbe8" stop-opacity="0"/>
      <stop offset=".92" stop-color="#fffbe8" stop-opacity="0"/>
      <stop offset=".92" stop-color="#fffbe8"/>
      <stop offset="1" stop-color="#fffbe8"/>
    </linearGradient>
  </defs>
  <g id="Layer_2-2" data-name="Layer 2">
    <g>
      <g>
        <path class="cls-1" d="m34.65,168.68c-14.96-16.53-22.61-39.16-22.64-67.38-.05-27.21,7.96-49.58,23.23-66.62,15.29-17.04,35.02-25.68,60.36-25.68,13.32,0,25.87,2.54,37.43,7.88,1.14,13.14,1.61,26.27,1.65,39.41-7.58-4.58-16.49-6.87-26.41-6.87-28.17,0-46.31,19.32-47,51.87-.65,32.8,17.35,52.13,44.7,52.13,9.38,0,18.35-2.29,26.95-6.61-.65,13.14-1.16,26.27-1.29,39.41-10.13,4.83-22.2,7.37-36.54,7.37-25.42,0-45.47-8.39-60.44-24.92Z"/>
        <path class="cls-1" d="m226.54,193.6c-18.98,0-34.23-5.85-45.26-17.54-11.02-11.7-16.04-26.95-14.76-46.02,1.28-19.07,8.18-34.33,20.37-46.02,12.18-11.44,27.84-17.29,47.31-17.29,19.44,0,35.22,5.85,46.18,17.29,10.96,11.7,15.14,26.95,13.16,46.02-1.97,19.07-8.85,34.33-20.74,46.02-11.91,11.7-27.24,17.54-46.26,17.54Zm1.25-35.09c6.36,0,11.35-2.54,15.58-7.88,3.98-5.34,6.37-12.21,7.14-20.6,1.63-17.29-5.47-28.22-18.13-28.22-12.65,0-21.44,10.93-22.84,28.22-.67,8.39.59,15.26,4.04,20.6,3.19,5.34,7.86,7.88,14.22,7.88Z"/>
        <path class="cls-1" d="m331,191.06c.21-40.6,8.29-81.2,9.63-121.8h41.53c-.28,7.97-.83,15.93-1.53,23.9,9.99-17.04,23.2-25.68,40.98-25.68,17.46,0,28.7,6.87,32.99,20.34.41,1.27.75,3.31,1.25,6.1,10.37-17.54,23.78-26.44,41.5-26.44,17.4,0,28.59,6.87,32.87,20.34,2.27,6.87,2.41,18.05.56,33.31-2.79,23.31-5.77,46.62-5.9,69.92h-43.13c.11-19.16,2.16-38.31,4.46-57.47,1.23-10.17,1.52-16.78.85-19.83-1.11-5.85-5.17-8.65-11.83-8.65-5.9,0-10.79,2.54-14.69,7.37-3.31,4.32-6.03,13.73-7.67,27.72-1.95,16.95-3.56,33.9-3.66,50.85h-42.97c.11-19.16,2.11-38.31,4.35-57.47,1.23-10.42,1.51-17.04.79-19.83-1.64-5.85-5.46-8.65-11.88-8.65-5.91,0-10.8,2.54-14.68,7.37-3.29,4.32-5.96,13.73-7.52,27.72-1.86,16.95-3.4,33.9-3.5,50.85h-42.81Z"/>
        <path class="cls-1" d="m605.18,55.53c-15.65,0-22.97-7.63-24.51-23.14-1.75-15.51,3.72-23.14,19.47-23.14,15.56,0,25.36,7.63,27,23.14,1.46,15.51-6.5,23.14-21.96,23.14Zm-31.85,135.53c.23-40.6,8.81-81.2,10.24-121.8h42.84c-1.36,40.6-9.54,81.2-9.76,121.8h-43.32Z"/>
        <path class="cls-1" d="m665.83,191.06c.2-40.6,7.74-81.2,9-121.8h40.88c-.22,7.97-.67,15.93-1.24,23.9,9.6-17.04,22.55-25.68,40.05-25.68,13.41,0,23.47,4.58,29.68,13.73,4.79,6.87,6.66,19.83,5.34,38.4-1.66,23.82-3.48,47.63-3.56,71.45h-43.68c.08-19.16,1.49-38.31,3.07-57.47.87-10.42.91-17.04.11-19.83-1.57-5.85-5.69-8.65-12.06-8.65-6.12,0-10.91,2.54-14.41,7.37-3.2,4.58-5.59,13.48-6.78,26.7-1.53,17.29-2.81,34.58-2.89,51.87h-43.52Z"/>
        <path class="cls-1" d="m916.73,69.26h38.14c0,33.56,0,67.13,0,100.69,0,24.66-2.12,36.36-9.13,47.29-10.44,16.53-28.87,24.66-55.74,24.66-18.96,0-34.61-3.05-47.23-9.15-.77-9.83-1.19-19.66-1.36-29.5,11.59,6.1,24.46,9.15,38.79,9.15,18.49-1.02,26.23-5.85,28.82-15.76,2.08-7.37,2.09-10.17,2.15-18.56,0-.25,0-.51,0-.76-6.88,9.41-17.34,14.24-31.46,14.24-15.93,0-28.52-5.85-37.64-17.29-9.39-11.44-13.36-26.19-12.33-44.24,1.06-18.56,6.71-33.56,16.92-45.26,9.96-11.44,22.05-17.29,36.4-17.29,16.85,0,28.1,8.65,33.41,26.19.12-8.14.22-16.27.26-24.41Zm-10.13,82.38c3.99-5.09,5.92-11.7,6.09-20.09.33-17.04-7.58-27.72-19.5-27.72-11.92,0-20.43,10.68-21.12,27.72-.33,8.39,1.24,15,4.97,20.09,7.21,10.17,21.85,10.17,29.56,0Z"/>
      </g>
      <g>
        <path class="cls-4" d="m46.65,166.68c-14.96-16.53-22.61-39.16-22.64-67.38-.05-27.21,7.96-49.58,23.23-66.62C62.52,15.65,82.25,7,107.59,7c13.32,0,25.87,2.54,37.43,7.88,1.14,13.14,1.61,26.27,1.65,39.41-7.58-4.58-16.49-6.87-26.41-6.87-28.17,0-46.31,19.32-47,51.87-.65,32.8,17.35,52.13,44.7,52.13,9.38,0,18.35-2.29,26.95-6.61-.65,13.14-1.16,26.27-1.29,39.41-10.13,4.83-22.2,7.37-36.54,7.37-25.42,0-45.47-8.39-60.44-24.92Z"/>
        <path class="cls-4" d="m238.54,191.6c-18.98,0-34.23-5.85-45.26-17.54-11.02-11.7-16.04-26.95-14.76-46.02,1.28-19.07,8.18-34.33,20.37-46.02,12.18-11.44,27.84-17.29,47.31-17.29,19.44,0,35.22,5.85,46.18,17.29,10.96,11.7,15.14,26.95,13.16,46.02-1.97,19.07-8.85,34.33-20.74,46.02-11.91,11.7-27.24,17.54-46.26,17.54Zm1.25-35.09c6.36,0,11.35-2.54,15.58-7.88,3.98-5.34,6.37-12.21,7.14-20.6,1.63-17.29-5.47-28.22-18.13-28.22-12.65,0-21.44,10.93-22.84,28.22-.67,8.39.59,15.26,4.04,20.6,3.19,5.34,7.86,7.88,14.22,7.88Z"/>
        <path class="cls-4" d="m343,189.06c.21-40.6,8.29-81.2,9.63-121.8h41.53c-.28,7.97-.83,15.93-1.53,23.9,9.99-17.04,23.2-25.68,40.98-25.68,17.46,0,28.7,6.87,32.99,20.34.41,1.27.75,3.31,1.25,6.1,10.37-17.54,23.78-26.44,41.5-26.44,17.4,0,28.59,6.87,32.87,20.34,2.27,6.87,2.41,18.05.56,33.31-2.79,23.31-5.77,46.62-5.9,69.92h-43.13c.11-19.16,2.16-38.31,4.46-57.47,1.23-10.17,1.52-16.78.85-19.83-1.11-5.85-5.17-8.65-11.83-8.65-5.9,0-10.79,2.54-14.69,7.37-3.31,4.32-6.03,13.73-7.67,27.72-1.95,16.95-3.56,33.9-3.66,50.85h-42.97c.11-19.16,2.11-38.31,4.35-57.47,1.23-10.42,1.51-17.04.79-19.83-1.64-5.85-5.46-8.65-11.88-8.65-5.91,0-10.8,2.54-14.68,7.37-3.29,4.32-5.96,13.73-7.52,27.72-1.86,16.95-3.4,33.9-3.5,50.85h-42.81Z"/>
        <path class="cls-4" d="m617.18,53.53c-15.65,0-22.97-7.63-24.51-23.14-1.75-15.51,3.72-23.14,19.47-23.14,15.56,0,25.36,7.63,27,23.14,1.46,15.51-6.5,23.14-21.96,23.14Zm-31.85,135.53c.23-40.6,8.81-81.2,10.24-121.8h42.84c-1.36,40.6-9.54,81.2-9.76,121.8h-43.32Z"/>
        <path class="cls-4" d="m677.83,189.06c.2-40.6,7.74-81.2,9-121.8h40.88c-.22,7.97-.67,15.93-1.24,23.9,9.6-17.04,22.55-25.68,40.05-25.68,13.41,0,23.47,4.58,29.68,13.73,4.79,6.87,6.66,19.83,5.34,38.4-1.66,23.82-3.48,47.63-3.56,71.45h-43.68c.08-19.16,1.49-38.31,3.07-57.47.87-10.42.91-17.04.11-19.83-1.57-5.85-5.69-8.65-12.06-8.65-6.12,0-10.91,2.54-14.41,7.37-3.2,4.58-5.59,13.48-6.78,26.7-1.53,17.29-2.81,34.58-2.89,51.87h-43.52Z"/>
        <path class="cls-4" d="m928.73,67.26h38.14c0,33.56,0,67.13,0,100.69,0,24.66-2.12,36.36-9.13,47.29-10.44,16.53-28.87,24.66-55.74,24.66-18.96,0-34.61-3.05-47.23-9.15-.77-9.83-1.19-19.66-1.36-29.5,11.59,6.1,24.46,9.15,38.79,9.15,18.49-1.02,26.23-5.85,28.82-15.76,2.08-7.37,2.09-10.17,2.15-18.56,0-.25,0-.51,0-.76-6.88,9.41-17.34,14.24-31.46,14.24-15.93,0-28.52-5.85-37.64-17.29-9.39-11.44-13.36-26.19-12.33-44.24,1.06-18.56,6.71-33.56,16.92-45.26,9.96-11.44,22.05-17.29,36.4-17.29,16.85,0,28.1,8.65,33.41,26.19.12-8.14.22-16.27.26-24.41Zm-10.13,82.38c3.99-5.09,5.92-11.7,6.09-20.09.33-17.04-7.58-27.72-19.5-27.72-11.92,0-20.43,10.68-21.12,27.72-.33,8.39,1.24,15,4.97,20.09,7.21,10.17,21.85,10.17,29.56,0Z"/>
      </g>
      <g>
        <path class="cls-6" d="m55.65,162.68c-14.96-16.53-22.61-39.16-22.64-67.38-.05-27.21,7.96-49.58,23.23-66.62C71.52,11.65,91.25,3,116.59,3c13.32,0,25.87,2.54,37.43,7.88,1.14,13.14,1.61,26.27,1.65,39.41-7.58-4.58-16.49-6.87-26.41-6.87-28.17,0-46.31,19.32-47,51.87-.65,32.8,17.35,52.13,44.7,52.13,9.38,0,18.35-2.29,26.95-6.61-.65,13.14-1.16,26.27-1.29,39.41-10.13,4.83-22.2,7.37-36.54,7.37-25.42,0-45.47-8.39-60.44-24.92Z"/>
        <path class="cls-6" d="m247.54,187.6c-18.98,0-34.23-5.85-45.26-17.54-11.02-11.7-16.04-26.95-14.76-46.02,1.28-19.07,8.18-34.33,20.37-46.02,12.18-11.44,27.84-17.29,47.31-17.29,19.44,0,35.22,5.85,46.18,17.29,10.96,11.7,15.14,26.95,13.16,46.02-1.97,19.07-8.85,34.33-20.74,46.02-11.91,11.7-27.24,17.54-46.26,17.54Zm1.25-35.09c6.36,0,11.35-2.54,15.58-7.88,3.98-5.34,6.37-12.21,7.14-20.6,1.63-17.29-5.47-28.22-18.13-28.22-12.65,0-21.44,10.93-22.84,28.22-.67,8.39.59,15.26,4.04,20.6,3.19,5.34,7.86,7.88,14.22,7.88Z"/>
        <path class="cls-6" d="m352,185.06c.21-40.6,8.29-81.2,9.63-121.8h41.53c-.28,7.97-.83,15.93-1.53,23.9,9.99-17.04,23.2-25.68,40.98-25.68,17.46,0,28.7,6.87,32.99,20.34.41,1.27.75,3.31,1.25,6.1,10.37-17.54,23.78-26.44,41.5-26.44,17.4,0,28.59,6.87,32.87,20.34,2.27,6.87,2.41,18.05.56,33.31-2.79,23.31-5.77,46.62-5.9,69.92h-43.13c.11-19.16,2.16-38.31,4.46-57.47,1.23-10.17,1.52-16.78.85-19.83-1.11-5.85-5.17-8.65-11.83-8.65-5.9,0-10.79,2.54-14.69,7.37-3.31,4.32-6.03,13.73-7.67,27.72-1.95,16.95-3.56,33.9-3.66,50.85h-42.97c.11-19.16,2.11-38.31,4.35-57.47,1.23-10.42,1.51-17.04.79-19.83-1.64-5.85-5.46-8.65-11.88-8.65-5.91,0-10.8,2.54-14.68,7.37-3.29,4.32-5.96,13.73-7.52,27.72-1.86,16.95-3.4,33.9-3.5,50.85h-42.81Z"/>
        <path class="cls-6" d="m626.18,49.53c-15.65,0-22.97-7.63-24.51-23.14-1.75-15.51,3.72-23.14,19.47-23.14,15.56,0,25.36,7.63,27,23.14,1.46,15.51-6.5,23.14-21.96,23.14Zm-31.85,135.53c.23-40.6,8.81-81.2,10.24-121.8h42.84c-1.36,40.6-9.54,81.2-9.76,121.8h-43.32Z"/>
        <path class="cls-6" d="m686.83,185.06c.2-40.6,7.74-81.2,9-121.8h40.88c-.22,7.97-.67,15.93-1.24,23.9,9.6-17.04,22.55-25.68,40.05-25.68,13.41,0,23.47,4.58,29.68,13.73,4.79,6.87,6.66,19.83,5.34,38.4-1.66,23.82-3.48,47.63-3.56,71.45h-43.68c.08-19.16,1.49-38.31,3.07-57.47.87-10.42.91-17.04.11-19.83-1.57-5.85-5.69-8.65-12.06-8.65-6.12,0-10.91,2.54-14.41,7.37-3.2,4.58-5.59,13.48-6.78,26.7-1.53,17.29-2.81,34.58-2.89,51.87h-43.52Z"/>
        <path class="cls-6" d="m937.73,63.26h38.14c0,33.56,0,67.13,0,100.69,0,24.66-2.12,36.36-9.13,47.29-10.44,16.53-28.87,24.66-55.74,24.66-18.96,0-34.61-3.05-47.23-9.15-.77-9.83-1.19-19.66-1.36-29.5,11.59,6.1,24.46,9.15,38.79,9.15,18.49-1.02,26.23-5.85,28.82-15.76,2.08-7.37,2.09-10.17,2.15-18.56,0-.25,0-.51,0-.76-6.88,9.41-17.34,14.24-31.46,14.24-15.93,0-28.52-5.85-37.64-17.29-9.39-11.44-13.36-26.19-12.33-44.24,1.06-18.56,6.71-33.56,16.92-45.26,9.96-11.44,22.05-17.29,36.4-17.29,16.85,0,28.1,8.65,33.41,26.19.12-8.14.22-16.27.26-24.41Zm-10.13,82.38c3.99-5.09,5.92-11.7,6.09-20.09.33-17.04-7.58-27.72-19.5-27.72-11.92,0-20.43,10.68-21.12,27.72-.33,8.39,1.24,15,4.97,20.09,7.21,10.17,21.85,10.17,29.56,0Z"/>
      </g>
      <g>
        <path class="cls-2" d="m48.65,165.68c-14.96-16.53-22.61-39.16-22.64-67.38-.05-27.21,7.96-49.58,23.23-66.62,15.29-17.04,35.02-25.68,60.36-25.68,13.32,0,25.87,2.54,37.43,7.88,1.14,13.14,1.61,26.27,1.65,39.41-7.58-4.58-16.49-6.87-26.41-6.87-28.17,0-46.31,19.32-47,51.87-.65,32.8,17.35,52.13,44.7,52.13,9.38,0,18.35-2.29,26.95-6.61-.65,13.14-1.16,26.27-1.29,39.41-10.13,4.83-22.2,7.37-36.54,7.37-25.42,0-45.47-8.39-60.44-24.92Z"/>
        <path class="cls-2" d="m240.54,190.6c-18.98,0-34.23-5.85-45.26-17.54-11.02-11.7-16.04-26.95-14.76-46.02,1.28-19.07,8.18-34.33,20.37-46.02,12.18-11.44,27.84-17.29,47.31-17.29,19.44,0,35.22,5.85,46.18,17.29,10.96,11.7,15.14,26.95,13.16,46.02-1.97,19.07-8.85,34.33-20.74,46.02-11.91,11.7-27.24,17.54-46.26,17.54Zm1.25-35.09c6.36,0,11.35-2.54,15.58-7.88,3.98-5.34,6.37-12.21,7.14-20.6,1.63-17.29-5.47-28.22-18.13-28.22-12.65,0-21.44,10.93-22.84,28.22-.67,8.39.59,15.26,4.04,20.6,3.19,5.34,7.86,7.88,14.22,7.88Z"/>
        <path class="cls-2" d="m345,188.06c.21-40.6,8.29-81.2,9.63-121.8h41.53c-.28,7.97-.83,15.93-1.53,23.9,9.99-17.04,23.2-25.68,40.98-25.68,17.46,0,28.7,6.87,32.99,20.34.41,1.27.75,3.31,1.25,6.1,10.37-17.54,23.78-26.44,41.5-26.44,17.4,0,28.59,6.87,32.87,20.34,2.27,6.87,2.41,18.05.56,33.31-2.79,23.31-5.77,46.62-5.9,69.92h-43.13c.11-19.16,2.16-38.31,4.46-57.47,1.23-10.17,1.52-16.78.85-19.83-1.11-5.85-5.17-8.65-11.83-8.65-5.9,0-10.79,2.54-14.69,7.37-3.31,4.32-6.03,13.73-7.67,27.72-1.95,16.95-3.56,33.9-3.66,50.85h-42.97c.11-19.16,2.11-38.31,4.35-57.47,1.23-10.42,1.51-17.04.79-19.83-1.64-5.85-5.46-8.65-11.88-8.65-5.91,0-10.8,2.54-14.68,7.37-3.29,4.32-5.96,13.73-7.52,27.72-1.86,16.95-3.4,33.9-3.5,50.85h-42.81Z"/>
        <path class="cls-2" d="m619.18,52.53c-15.65,0-22.97-7.63-24.51-23.14-1.75-15.51,3.72-23.14,19.47-23.14,15.56,0,25.36,7.63,27,23.14,1.46,15.51-6.5,23.14-21.96,23.14Zm-31.85,135.53c.23-40.6,8.81-81.2,10.24-121.8h42.84c-1.36,40.6-9.54,81.2-9.76,121.8h-43.32Z"/>
        <path class="cls-2" d="m679.83,188.06c.2-40.6,7.74-81.2,9-121.8h40.88c-.22,7.97-.67,15.93-1.24,23.9,9.6-17.04,22.55-25.68,40.05-25.68,13.41,0,23.47,4.58,29.68,13.73,4.79,6.87,6.66,19.83,5.34,38.4-1.66,23.82-3.48,47.63-3.56,71.45h-43.68c.08-19.16,1.49-38.31,3.07-57.47.87-10.42.91-17.04.11-19.83-1.57-5.85-5.69-8.65-12.06-8.65-6.12,0-10.91,2.54-14.41,7.37-3.2,4.58-5.59,13.48-6.78,26.7-1.53,17.29-2.81,34.58-2.89,51.87h-43.52Z"/>
        <path class="cls-2" d="m930.73,66.26h38.14c0,33.56,0,67.13,0,100.69,0,24.66-2.12,36.36-9.13,47.29-10.44,16.53-28.87,24.66-55.74,24.66-18.96,0-34.61-3.05-47.23-9.15-.77-9.83-1.19-19.66-1.36-29.5,11.59,6.1,24.46,9.15,38.79,9.15,18.49-1.02,26.23-5.85,28.82-15.76,2.08-7.37,2.09-10.17,2.15-18.56,0-.25,0-.51,0-.76-6.88,9.41-17.34,14.24-31.46,14.24-15.93,0-28.52-5.85-37.64-17.29-9.39-11.44-13.36-26.19-12.33-44.24,1.06-18.56,6.71-33.56,16.92-45.26,9.96-11.44,22.05-17.29,36.4-17.29,16.85,0,28.1,8.65,33.41,26.19.12-8.14.22-16.27.26-24.41Zm-10.13,82.38c3.99-5.09,5.92-11.7,6.09-20.09.33-17.04-7.58-27.72-19.5-27.72-11.92,0-20.43,10.68-21.12,27.72-.33,8.39,1.24,15,4.97,20.09,7.21,10.17,21.85,10.17,29.56,0Z"/>
      </g>
      <g>
        <path class="cls-3" d="m22.65,159.68C7.69,143.16.03,120.52,0,92.3c-.05-27.21,7.96-49.58,23.23-66.62C38.52,8.65,58.25,0,83.59,0c13.32,0,25.87,2.54,37.43,7.88,1.14,13.14,1.61,26.27,1.65,39.41-7.58-4.58-16.49-6.87-26.41-6.87-28.17,0-46.31,19.32-47,51.87-.65,32.8,17.35,52.13,44.7,52.13,9.38,0,18.35-2.29,26.95-6.61-.65,13.14-1.16,26.27-1.29,39.41-10.13,4.83-22.2,7.37-36.54,7.37-25.42,0-45.47-8.39-60.44-24.92Z"/>
        <path class="cls-3" d="m214.54,184.6c-18.98,0-34.23-5.85-45.26-17.54-11.02-11.7-16.04-26.95-14.76-46.02,1.28-19.07,8.18-34.33,20.37-46.02,12.18-11.44,27.84-17.29,47.31-17.29,19.44,0,35.22,5.85,46.18,17.29,10.96,11.7,15.14,26.95,13.16,46.02-1.97,19.07-8.85,34.33-20.74,46.02-11.91,11.7-27.24,17.54-46.26,17.54Zm1.25-35.09c6.36,0,11.35-2.54,15.58-7.88,3.98-5.34,6.37-12.21,7.14-20.6,1.63-17.29-5.47-28.22-18.13-28.22-12.65,0-21.44,10.93-22.84,28.22-.67,8.39.59,15.26,4.04,20.6,3.19,5.34,7.86,7.88,14.22,7.88Z"/>
        <path class="cls-3" d="m319,182.06c.21-40.6,8.29-81.2,9.63-121.8h41.53c-.28,7.97-.83,15.93-1.53,23.9,9.99-17.04,23.2-25.68,40.98-25.68,17.46,0,28.7,6.87,32.99,20.34.41,1.27.75,3.31,1.25,6.1,10.37-17.54,23.78-26.44,41.5-26.44,17.4,0,28.59,6.87,32.87,20.34,2.27,6.87,2.41,18.05.56,33.31-2.79,23.31-5.77,46.62-5.9,69.92h-43.13c.11-19.16,2.16-38.31,4.46-57.47,1.23-10.17,1.52-16.78.85-19.83-1.11-5.85-5.17-8.65-11.83-8.65-5.9,0-10.79,2.54-14.69,7.37-3.31,4.32-6.03,13.73-7.67,27.72-1.95,16.95-3.56,33.9-3.66,50.85h-42.97c.11-19.16,2.11-38.31,4.35-57.47,1.23-10.42,1.51-17.04.79-19.83-1.64-5.85-5.46-8.65-11.88-8.65-5.91,0-10.8,2.54-14.68,7.37-3.29,4.32-5.96,13.73-7.52,27.72-1.86,16.95-3.4,33.9-3.5,50.85h-42.81Z"/>
        <path class="cls-3" d="m593.18,46.53c-15.65,0-22.97-7.63-24.51-23.14-1.75-15.51,3.72-23.14,19.47-23.14,15.56,0,25.36,7.63,27,23.14,1.46,15.51-6.5,23.14-21.96,23.14Zm-31.85,135.53c.23-40.6,8.81-81.2,10.24-121.8h42.84c-1.36,40.6-9.54,81.2-9.76,121.8h-43.32Z"/>
        <path class="cls-3" d="m653.83,182.06c.2-40.6,7.74-81.2,9-121.8h40.88c-.22,7.97-.67,15.93-1.24,23.9,9.6-17.04,22.55-25.68,40.05-25.68,13.41,0,23.47,4.58,29.68,13.73,4.79,6.87,6.66,19.83,5.34,38.4-1.66,23.82-3.48,47.63-3.56,71.45h-43.68c.08-19.16,1.49-38.31,3.07-57.47.87-10.42.91-17.04.11-19.83-1.57-5.85-5.69-8.65-12.06-8.65-6.12,0-10.91,2.54-14.41,7.37-3.2,4.58-5.59,13.48-6.78,26.7-1.53,17.29-2.81,34.58-2.89,51.87h-43.52Z"/>
        <path class="cls-3" d="m904.73,60.26h38.14c0,33.56,0,67.13,0,100.69,0,24.66-2.12,36.36-9.13,47.29-10.44,16.53-28.87,24.66-55.74,24.66-18.96,0-34.61-3.05-47.23-9.15-.77-9.83-1.19-19.66-1.36-29.5,11.59,6.1,24.46,9.15,38.79,9.15,18.49-1.02,26.23-5.85,28.82-15.76,2.08-7.37,2.09-10.17,2.15-18.56,0-.25,0-.51,0-.76-6.88,9.41-17.34,14.24-31.46,14.24-15.93,0-28.52-5.85-37.64-17.29-9.39-11.44-13.36-26.19-12.33-44.24,1.06-18.56,6.71-33.56,16.92-45.26,9.96-11.44,22.05-17.29,36.4-17.29,16.85,0,28.1,8.65,33.41,26.19.12-8.14.22-16.27.26-24.41Zm-10.13,82.38c3.99-5.09,5.92-11.7,6.09-20.09.33-17.04-7.58-27.72-19.5-27.72-11.92,0-20.43,10.68-21.12,27.72-.33,8.39,1.24,15,4.97,20.09,7.21,10.17,21.85,10.17,29.56,0Z"/>
      </g>
      <g>
        <path class="cls-5" d="m35.65,162.68c-14.96-16.53-22.61-39.16-22.64-67.38-.05-27.21,7.96-49.58,23.23-66.62C51.52,11.65,71.25,3,96.59,3c13.32,0,25.87,2.54,37.43,7.88,1.14,13.14,1.61,26.27,1.65,39.41-7.58-4.58-16.49-6.87-26.41-6.87-28.17,0-46.31,19.32-47,51.87-.65,32.8,17.35,52.13,44.7,52.13,9.38,0,18.35-2.29,26.95-6.61-.65,13.14-1.16,26.27-1.29,39.41-10.13,4.83-22.2,7.37-36.54,7.37-25.42,0-45.47-8.39-60.44-24.92Z"/>
        <path class="cls-5" d="m227.54,187.6c-18.98,0-34.23-5.85-45.26-17.54-11.02-11.7-16.04-26.95-14.76-46.02,1.28-19.07,8.18-34.33,20.37-46.02,12.18-11.44,27.84-17.29,47.31-17.29,19.44,0,35.22,5.85,46.18,17.29,10.96,11.7,15.14,26.95,13.16,46.02-1.97,19.07-8.85,34.33-20.74,46.02-11.91,11.7-27.24,17.54-46.26,17.54Zm1.25-35.09c6.36,0,11.35-2.54,15.58-7.88,3.98-5.34,6.37-12.21,7.14-20.6,1.63-17.29-5.47-28.22-18.13-28.22-12.65,0-21.44,10.93-22.84,28.22-.67,8.39.59,15.26,4.04,20.6,3.19,5.34,7.86,7.88,14.22,7.88Z"/>
        <path class="cls-5" d="m332,185.06c.21-40.6,8.29-81.2,9.63-121.8h41.53c-.28,7.97-.83,15.93-1.53,23.9,9.99-17.04,23.2-25.68,40.98-25.68,17.46,0,28.7,6.87,32.99,20.34.41,1.27.75,3.31,1.25,6.1,10.37-17.54,23.78-26.44,41.5-26.44,17.4,0,28.59,6.87,32.87,20.34,2.27,6.87,2.41,18.05.56,33.31-2.79,23.31-5.77,46.62-5.9,69.92h-43.13c.11-19.16,2.16-38.31,4.46-57.47,1.23-10.17,1.52-16.78.85-19.83-1.11-5.85-5.17-8.65-11.83-8.65-5.9,0-10.79,2.54-14.69,7.37-3.31,4.32-6.03,13.73-7.67,27.72-1.95,16.95-3.56,33.9-3.66,50.85h-42.97c.11-19.16,2.11-38.31,4.35-57.47,1.23-10.42,1.51-17.04.79-19.83-1.64-5.85-5.46-8.65-11.88-8.65-5.91,0-10.8,2.54-14.68,7.37-3.29,4.32-5.96,13.73-7.52,27.72-1.86,16.95-3.4,33.9-3.5,50.85h-42.81Z"/>
        <path class="cls-5" d="m606.18,49.53c-15.65,0-22.97-7.63-24.51-23.14-1.75-15.51,3.72-23.14,19.47-23.14,15.56,0,25.36,7.63,27,23.14,1.46,15.51-6.5,23.14-21.96,23.14Zm-31.85,135.53c.23-40.6,8.81-81.2,10.24-121.8h42.84c-1.36,40.6-9.54,81.2-9.76,121.8h-43.32Z"/>
        <path class="cls-5" d="m666.83,185.06c.2-40.6,7.74-81.2,9-121.8h40.88c-.22,7.97-.67,15.93-1.24,23.9,9.6-17.04,22.55-25.68,40.05-25.68,13.41,0,23.47,4.58,29.68,13.73,4.79,6.87,6.66,19.83,5.34,38.4-1.66,23.82-3.48,47.63-3.56,71.45h-43.68c.08-19.16,1.49-38.31,3.07-57.47.87-10.42.91-17.04.11-19.83-1.57-5.85-5.69-8.65-12.06-8.65-6.12,0-10.91,2.54-14.41,7.37-3.2,4.58-5.59,13.48-6.78,26.7-1.53,17.29-2.81,34.58-2.89,51.87h-43.52Z"/>
        <path class="cls-5" d="m917.73,63.26h38.14c0,33.56,0,67.13,0,100.69,0,24.66-2.12,36.36-9.13,47.29-10.44,16.53-28.87,24.66-55.74,24.66-18.96,0-34.61-3.05-47.23-9.15-.77-9.83-1.19-19.66-1.36-29.5,11.59,6.1,24.46,9.15,38.79,9.15,18.49-1.02,26.23-5.85,28.82-15.76,2.08-7.37,2.09-10.17,2.15-18.56,0-.25,0-.51,0-.76-6.88,9.41-17.34,14.24-31.46,14.24-15.93,0-28.52-5.85-37.64-17.29-9.39-11.44-13.36-26.19-12.33-44.24,1.06-18.56,6.71-33.56,16.92-45.26,9.96-11.44,22.05-17.29,36.4-17.29,16.85,0,28.1,8.65,33.41,26.19.12-8.14.22-16.27.26-24.41Zm-10.13,82.38c3.99-5.09,5.92-11.7,6.09-20.09.33-17.04-7.58-27.72-19.5-27.72-11.92,0-20.43,10.68-21.12,27.72-.33,8.39,1.24,15,4.97,20.09,7.21,10.17,21.85,10.17,29.56,0Z"/>
      </g>
    </g>
  </g>
</svg>