<?xml version="1.0" encoding="UTF-8"?>
<svg id="Layer_2" data-name="Layer 2" xmlns="http://www.w3.org/2000/svg" xmlns:xlink="http://www.w3.org/1999/xlink" viewBox="0 0 800 78.05">
  <defs>
    <style>
      .cls-1 {
        fill: url(#New_Pattern_2);
        opacity: .28;
      }

      .cls-2 {
        fill: #00aeef;
      }

      .cls-3 {
        fill: #fffbe8;
      }

      .cls-4 {
        fill: none;
      }

      .cls-5 {
        fill: #ec397a;
      }

      .cls-6 {
        fill: #1d1d1b;
      }
    </style>
    <pattern id="New_Pattern_2" data-name="New Pattern 2" x="0" y="0" width="1069.24" height="1329.12" patternTransform="translate(-2333.91 -7334.06) scale(.68 .1)" patternUnits="userSpaceOnUse" viewBox="0 0 1069.24 1329.12">
      <g>
        <rect class="cls-4" y="0" width="1069.24" height="1329.12"/>
        <g>
          <rect class="cls-3" x="585.77" y="1204.32" width="59.64" height="9.27"/>
          <rect class="cls-3" x="767.11" y="1286.4" width=".59" height=".97"/>
          <rect class="cls-3" x="884.82" y="1156.09" width="29.92" height="12.7"/>
          <rect class="cls-3" x="896.65" y="1116.34" width="8.04" height="3.86"/>
          <rect class="cls-5" x="709.83" y="1161.6" width="5.29" height="1.15"/>
          <rect class="cls-5" x="618.08" y="1119.49" width="36.59" height="5.68"/>
          <rect class="cls-5" x="915.76" y="1063.36" width="55.38" height="8.61"/>
          <rect class="cls-5" x="844.66" y="1026.79" width="13.78" height="12.46"/>
          <rect class="cls-5" x="889.87" y="1325.31" width="3.04" height="2.73"/>
          <rect class="cls-2" x="1011.48" y="1267.96" width="19.1" height="2.97"/>
          <rect class="cls-2" x="666.48" y="1313.63" width="5.73" height=".89"/>
          <rect class="cls-2" x="562.2" y="1272.46" width="20.25" height="3.15"/>
          <rect class="cls-2" x="555.6" y="1062.44" width="3.62" height=".35"/>
          <rect class="cls-2" x="1011.15" y="1150.49" width="57.23" height="8.89"/>
          <rect class="cls-2" x="795.72" y="1218.74" width="71.3" height="11.08"/>
          <rect class="cls-6" x="744.01" y="1245.18" width="10.71" height="1.67"/>
          <rect class="cls-6" x="785.95" y="1070.51" width="18.21" height="15.97"/>
          <rect class="cls-6" x="890.84" y="1191.61" width="45.46" height="25.3"/>
          <rect class="cls-6" x="659.74" y="1220.96" width="25.73" height="2.06"/>
          <rect class="cls-6" x="742.07" y="1326.38" width="9.08" height="13.11"/>
          <rect class="cls-6" x="752.46" y="1328.45" width="1.8" height="8.98"/>
          <rect class="cls-6" x="593.09" y="1027.92" width="24.01" height="3.73"/>
        </g>
        <g>
          <rect class="cls-3" x="51.15" y="1204.32" width="59.64" height="9.27"/>
          <rect class="cls-3" x="232.49" y="1286.4" width=".59" height=".97"/>
          <rect class="cls-3" x="350.2" y="1156.09" width="29.92" height="12.7"/>
          <rect class="cls-3" x="362.03" y="1116.34" width="8.04" height="3.86"/>
          <rect class="cls-5" x="175.21" y="1161.6" width="5.29" height="1.15"/>
          <rect class="cls-5" x="83.46" y="1119.49" width="36.59" height="5.68"/>
          <rect class="cls-5" x="381.14" y="1063.36" width="55.38" height="8.61"/>
          <rect class="cls-5" x="310.04" y="1026.79" width="13.78" height="12.46"/>
          <rect class="cls-5" x="355.25" y="1325.31" width="3.04" height="2.73"/>
          <rect class="cls-2" x="476.86" y="1267.96" width="19.1" height="2.97"/>
          <rect class="cls-2" x="131.86" y="1313.63" width="5.73" height=".89"/>
          <rect class="cls-2" x="27.58" y="1272.46" width="20.25" height="3.15"/>
          <rect class="cls-2" x="20.98" y="1062.44" width="3.62" height=".35"/>
          <rect class="cls-2" x="476.53" y="1150.49" width="57.23" height="8.89"/>
          <rect class="cls-2" x="261.1" y="1218.74" width="71.3" height="11.08"/>
          <rect class="cls-6" x="209.39" y="1245.18" width="10.71" height="1.67"/>
          <rect class="cls-6" x="251.33" y="1070.51" width="18.21" height="15.97"/>
          <rect class="cls-6" x="356.22" y="1191.61" width="45.46" height="25.3"/>
          <rect class="cls-6" x="125.12" y="1220.96" width="25.73" height="2.06"/>
          <rect class="cls-6" x="207.45" y="1326.38" width="9.08" height="13.11"/>
          <rect class="cls-6" x="217.84" y="1328.45" width="1.8" height="8.98"/>
          <rect class="cls-6" x="58.47" y="1027.92" width="24.01" height="3.73"/>
        </g>
        <g>
          <rect class="cls-3" x="853.08" y="539.75" width="59.64" height="9.27"/>
          <rect class="cls-3" x="1034.42" y="621.83" width=".59" height=".97"/>
          <rect class="cls-3" x="995.04" y="719.42" width="4.06" height="2.26"/>
          <rect class="cls-3" x="1007.1" y="696.56" width="8.7" height="1.35"/>
          <rect class="cls-3" x="1060.85" y="840.42" width="48.38" height="7.52"/>
          <rect class="cls-5" x="977.14" y="497.04" width="5.29" height="1.15"/>
          <rect class="cls-5" x="885.39" y="454.93" width="36.59" height="5.68"/>
          <rect class="cls-5" x="892.86" y="913.92" width="7" height="7.67"/>
          <rect class="cls-5" x="949.11" y="865.05" width="48.28" height="7.5"/>
          <rect class="cls-2" x="933.79" y="649.07" width="5.73" height=".89"/>
          <rect class="cls-2" x="931.93" y="772.71" width="10.16" height="12.12"/>
          <rect class="cls-2" x="829.51" y="607.9" width="20.25" height="3.15"/>
          <rect class="cls-2" x="822.91" y="397.88" width="3.62" height=".35"/>
          <rect class="cls-2" x="1063.03" y="554.18" width="71.3" height="11.08"/>
          <rect class="cls-2" x="976.78" y="967.77" width="29.67" height="25.96"/>
          <rect class="cls-6" x="1011.32" y="580.62" width="10.71" height="1.67"/>
          <rect class="cls-6" x="1053.26" y="405.94" width="18.21" height="15.97"/>
          <rect class="cls-6" x="927.05" y="556.4" width="25.73" height="2.06"/>
          <rect class="cls-6" x="860.46" y="737.2" width="41.08" height="6.38"/>
          <rect class="cls-6" x="1009.38" y="661.82" width="9.08" height="13.11"/>
          <rect class="cls-6" x="1019.77" y="663.89" width="1.8" height="8.98"/>
          <rect class="cls-6" x="860.4" y="363.36" width="24.01" height="3.73"/>
        </g>
        <g>
          <rect class="cls-3" x="318.46" y="539.75" width="59.64" height="9.27"/>
          <rect class="cls-3" x="499.8" y="621.83" width=".59" height=".97"/>
          <rect class="cls-3" x="460.42" y="719.42" width="4.06" height="2.26"/>
          <rect class="cls-3" x="472.48" y="696.56" width="8.7" height="1.35"/>
          <rect class="cls-3" x="526.23" y="840.42" width="48.38" height="7.52"/>
          <rect class="cls-3" x="772.77" y="717.62" width=".32" height="2.77"/>
          <rect class="cls-3" x="617.51" y="491.53" width="29.92" height="12.7"/>
          <rect class="cls-3" x="629.34" y="451.78" width="8.04" height="3.86"/>
          <rect class="cls-5" x="442.52" y="497.04" width="5.29" height="1.15"/>
          <rect class="cls-5" x="350.77" y="454.93" width="36.59" height="5.68"/>
          <rect class="cls-5" x="358.24" y="913.92" width="7" height="7.67"/>
          <rect class="cls-5" x="414.49" y="865.05" width="48.28" height="7.5"/>
          <rect class="cls-5" x="648.45" y="398.8" width="55.38" height="8.61"/>
          <rect class="cls-5" x="577.35" y="362.23" width="13.78" height="12.46"/>
          <rect class="cls-5" x="742.4" y="739.24" width="14.86" height="2.31"/>
          <rect class="cls-5" x="622.56" y="660.75" width="3.04" height="2.73"/>
          <rect class="cls-2" x="744.17" y="603.4" width="19.1" height="2.97"/>
          <rect class="cls-2" x="399.17" y="649.07" width="5.73" height=".89"/>
          <rect class="cls-2" x="397.31" y="772.71" width="10.16" height="12.12"/>
          <rect class="cls-2" x="294.89" y="607.9" width="20.25" height="3.15"/>
          <rect class="cls-2" x="288.29" y="397.88" width="3.62" height=".35"/>
          <rect class="cls-2" x="743.84" y="485.93" width="57.23" height="8.89"/>
          <rect class="cls-2" x="528.41" y="554.18" width="71.3" height="11.08"/>
          <rect class="cls-2" x="442.16" y="967.77" width="29.67" height="25.96"/>
          <rect class="cls-2" x="713.48" y="924.87" width="89.31" height="13.87"/>
          <rect class="cls-6" x="476.7" y="580.62" width="10.71" height="1.67"/>
          <rect class="cls-6" x="518.64" y="405.94" width="18.21" height="15.97"/>
          <rect class="cls-6" x="623.53" y="527.05" width="45.46" height="25.3"/>
          <rect class="cls-6" x="537.51" y="862.33" width="83.34" height="12.95"/>
          <rect class="cls-6" x="559.51" y="759.2" width="15.09" height="2.35"/>
          <rect class="cls-6" x="392.43" y="556.4" width="25.73" height="2.06"/>
          <rect class="cls-6" x="325.84" y="737.2" width="41.08" height="6.38"/>
          <rect class="cls-6" x="474.76" y="661.82" width="9.08" height="13.11"/>
          <rect class="cls-6" x="485.15" y="663.89" width="1.8" height="8.98"/>
          <rect class="cls-6" x="325.78" y="363.36" width="24.01" height="3.73"/>
        </g>
        <g>
          <rect class="cls-3" x="-8.39" y="840.42" width="48.38" height="7.52"/>
          <rect class="cls-3" x="238.15" y="717.62" width=".32" height="2.77"/>
          <rect class="cls-3" x="82.89" y="491.53" width="29.92" height="12.7"/>
          <rect class="cls-3" x="94.72" y="451.78" width="8.04" height="3.86"/>
          <rect class="cls-5" x="113.83" y="398.8" width="55.38" height="8.61"/>
          <rect class="cls-5" x="42.73" y="362.23" width="13.78" height="12.46"/>
          <rect class="cls-5" x="207.79" y="739.24" width="14.86" height="2.31"/>
          <rect class="cls-5" x="87.94" y="660.75" width="3.04" height="2.73"/>
          <rect class="cls-2" x="209.55" y="603.4" width="19.1" height="2.97"/>
          <rect class="cls-2" x="209.22" y="485.93" width="57.23" height="8.89"/>
          <rect class="cls-2" x="-6.21" y="554.18" width="71.3" height="11.08"/>
          <rect class="cls-2" x="178.86" y="924.87" width="89.31" height="13.87"/>
          <rect class="cls-6" x="-15.98" y="405.94" width="18.21" height="15.97"/>
          <rect class="cls-6" x="88.91" y="527.05" width="45.46" height="25.3"/>
          <rect class="cls-6" x="2.89" y="862.33" width="83.34" height="12.95"/>
          <rect class="cls-6" x="24.89" y="759.2" width="15.09" height="2.35"/>
        </g>
        <g>
          <rect class="cls-3" x="727.73" y="54.86" width="4.06" height="2.26"/>
          <rect class="cls-3" x="739.79" y="32" width="8.7" height="1.35"/>
          <rect class="cls-3" x="793.54" y="175.86" width="48.38" height="7.52"/>
          <rect class="cls-3" x="1040.08" y="53.06" width=".32" height="2.77"/>
          <rect class="cls-5" x="625.55" y="249.35" width="7" height="7.67"/>
          <rect class="cls-5" x="681.8" y="200.49" width="48.28" height="7.5"/>
          <rect class="cls-5" x="1009.71" y="74.68" width="14.86" height="2.31"/>
          <rect class="cls-2" x="664.62" y="108.15" width="10.16" height="12.12"/>
          <rect class="cls-2" x="709.47" y="303.21" width="29.67" height="25.96"/>
          <rect class="cls-2" x="980.79" y="260.3" width="89.31" height="13.87"/>
          <rect class="cls-6" x="804.82" y="197.76" width="83.34" height="12.95"/>
          <rect class="cls-6" x="826.82" y="94.64" width="15.09" height="2.35"/>
          <rect class="cls-6" x="593.15" y="72.64" width="41.08" height="6.38"/>
          <rect class="cls-6" x="742.07" y="-2.74" width="9.08" height="13.11"/>
          <rect class="cls-6" x="752.46" y="-.67" width="1.8" height="8.98"/>
        </g>
        <g>
          <rect class="cls-3" x="193.11" y="54.86" width="4.06" height="2.26"/>
          <rect class="cls-3" x="205.17" y="32" width="8.7" height="1.35"/>
          <rect class="cls-3" x="258.92" y="175.86" width="48.38" height="7.52"/>
          <rect class="cls-3" x="505.46" y="53.06" width=".32" height="2.77"/>
          <rect class="cls-5" x="90.93" y="249.35" width="7" height="7.67"/>
          <rect class="cls-5" x="147.18" y="200.49" width="48.28" height="7.5"/>
          <rect class="cls-5" x="475.09" y="74.68" width="14.86" height="2.31"/>
          <rect class="cls-2" x="130" y="108.15" width="10.16" height="12.12"/>
          <rect class="cls-2" x="174.85" y="303.21" width="29.67" height="25.96"/>
          <rect class="cls-2" x="446.17" y="260.3" width="89.31" height="13.87"/>
          <rect class="cls-6" x="270.2" y="197.76" width="83.34" height="12.95"/>
          <rect class="cls-6" x="292.2" y="94.64" width="15.09" height="2.35"/>
          <rect class="cls-6" x="58.53" y="72.64" width="41.08" height="6.38"/>
          <rect class="cls-6" x="207.45" y="-2.74" width="9.08" height="13.11"/>
          <rect class="cls-6" x="217.84" y="-.67" width="1.8" height="8.98"/>
        </g>
        <rect class="cls-2" x="-88.45" y="260.3" width="89.31" height="13.87"/>
      </g>
    </pattern>
  </defs>
  <g id="Layer_2-2" data-name="Layer 2">
    <rect id="background" class="cls-1" width="800" height="78.05"/>
  </g>
</svg>