<?xml version="1.0" encoding="UTF-8"?>
<svg id="Layer_2" data-name="Layer 2" xmlns="http://www.w3.org/2000/svg" xmlns:xlink="http://www.w3.org/1999/xlink" viewBox="0 0 574.24 188.52">
  <defs>
    <style>
      .cls-1 {
        fill: url(#New_Gradient_Swatch_copy_9);
      }

      .cls-2 {
        fill: url(#New_Gradient_Swatch_copy_10);
      }

      .cls-3 {
        fill: url(#New_Gradient_Swatch_copy_8);
      }

      .cls-4 {
        fill: url(#New_Gradient_Swatch_copy_7);
      }

      .cls-5 {
        fill: url(#New_Gradient_Swatch_copy_11);
      }

      .cls-6 {
        fill: url(#New_Gradient_Swatch_copy_12);
      }
    </style>
    <linearGradient id="New_Gradient_Swatch_copy_9" data-name="New Gradient Swatch copy 9" x1="298.62" y1="182.52" x2="298.62" y2="3" gradientTransform="translate(-16 6)" gradientUnits="userSpaceOnUse">
      <stop offset="0" stop-color="#2de5ef"/>
      <stop offset=".2" stop-color="#2de5ef"/>
      <stop offset=".2" stop-color="#2de5ef" stop-opacity="0"/>
      <stop offset=".25" stop-color="#2de5ef" stop-opacity="0"/>
      <stop offset=".25" stop-color="#2de5ef"/>
      <stop offset=".47" stop-color="#2de5ef"/>
      <stop offset=".47" stop-color="#2de5ef" stop-opacity="0"/>
      <stop offset=".89" stop-color="#2de5ef" stop-opacity="0"/>
      <stop offset=".89" stop-color="#2de5ef"/>
      <stop offset=".92" stop-color="#2de5ef"/>
      <stop offset=".92" stop-color="#2de5ef" stop-opacity="0"/>
    </linearGradient>
    <linearGradient id="New_Gradient_Swatch_copy_7" data-name="New Gradient Swatch copy 7" x1="298.62" y1="182.52" x2="298.62" y2="3" gradientTransform="translate(-4 4)" gradientUnits="userSpaceOnUse">
      <stop offset="0" stop-color="#ec397a"/>
      <stop offset=".2" stop-color="#ec397a"/>
      <stop offset=".2" stop-color="#ec397a" stop-opacity="0"/>
      <stop offset=".25" stop-color="#ec397a" stop-opacity="0"/>
      <stop offset=".25" stop-color="#ec397a"/>
      <stop offset=".47" stop-color="#ec397a"/>
      <stop offset=".47" stop-color="#ec397a" stop-opacity="0"/>
      <stop offset=".89" stop-color="#ec397a" stop-opacity="0"/>
      <stop offset=".89" stop-color="#ec397a"/>
      <stop offset=".92" stop-color="#ec397a"/>
      <stop offset=".92" stop-color="#ec397a" stop-opacity="0"/>
    </linearGradient>
    <linearGradient id="New_Gradient_Swatch_copy_12" data-name="New Gradient Swatch copy 12" x1="298.62" y1="182.52" x2="298.62" y2="3" gradientTransform="translate(5)" gradientUnits="userSpaceOnUse">
      <stop offset="0" stop-color="#fffbe8"/>
      <stop offset=".2" stop-color="#fffbe8"/>
      <stop offset=".2" stop-color="#fffbe8" stop-opacity="0"/>
      <stop offset=".25" stop-color="#fffbe8" stop-opacity="0"/>
      <stop offset=".25" stop-color="#fffbe8"/>
      <stop offset=".47" stop-color="#fffbe8"/>
      <stop offset=".47" stop-color="#fffbe8" stop-opacity="0"/>
      <stop offset=".89" stop-color="#fffbe8" stop-opacity="0"/>
      <stop offset=".89" stop-color="#fffbe8"/>
      <stop offset=".92" stop-color="#fffbe8"/>
      <stop offset=".92" stop-color="#fffbe8" stop-opacity="0"/>
    </linearGradient>
    <linearGradient id="New_Gradient_Swatch_copy_10" data-name="New Gradient Swatch copy 10" x1="298.62" y1="182.52" x2="298.62" y2="3" gradientTransform="translate(-2 3)" gradientUnits="userSpaceOnUse">
      <stop offset=".21" stop-color="#2de5ef" stop-opacity="0"/>
      <stop offset=".21" stop-color="#2de5ef"/>
      <stop offset=".25" stop-color="#2de5ef"/>
      <stop offset=".25" stop-color="#2de5ef" stop-opacity="0"/>
      <stop offset=".53" stop-color="#2de5ef" stop-opacity="0"/>
      <stop offset=".53" stop-color="#2de5ef"/>
      <stop offset=".89" stop-color="#2de5ef"/>
      <stop offset=".89" stop-color="#2de5ef" stop-opacity="0"/>
      <stop offset=".92" stop-color="#2de5ef" stop-opacity="0"/>
      <stop offset=".92" stop-color="#2de5ef"/>
      <stop offset="1" stop-color="#2de5ef"/>
    </linearGradient>
    <linearGradient id="New_Gradient_Swatch_copy_8" data-name="New Gradient Swatch copy 8" x1="298.62" y1="182.52" x2="298.62" y2="3" gradientTransform="translate(-28 -3)" gradientUnits="userSpaceOnUse">
      <stop offset=".21" stop-color="#ec397a" stop-opacity="0"/>
      <stop offset=".21" stop-color="#ec397a"/>
      <stop offset=".25" stop-color="#ec397a"/>
      <stop offset=".25" stop-color="#ec397a" stop-opacity="0"/>
      <stop offset=".53" stop-color="#ec397a" stop-opacity="0"/>
      <stop offset=".53" stop-color="#ec397a"/>
      <stop offset=".89" stop-color="#ec397a"/>
      <stop offset=".89" stop-color="#ec397a" stop-opacity="0"/>
      <stop offset=".92" stop-color="#ec397a" stop-opacity="0"/>
      <stop offset=".92" stop-color="#ec397a"/>
      <stop offset="1" stop-color="#ec397a"/>
    </linearGradient>
    <linearGradient id="New_Gradient_Swatch_copy_11" data-name="New Gradient Swatch copy 11" x1="298.62" y1="182.52" x2="298.62" y2="3" gradientTransform="translate(-15)" gradientUnits="userSpaceOnUse">
      <stop offset=".21" stop-color="#fffbe8" stop-opacity="0"/>
      <stop offset=".21" stop-color="#fffbe8"/>
      <stop offset=".25" stop-color="#fffbe8"/>
      <stop offset=".25" stop-color="#fffbe8" stop-opacity="0"/>
      <stop offset=".53" stop-color="#fffbe8" stop-opacity="0"/>
      <stop offset=".53" stop-color="#fffbe8"/>
      <stop offset=".89" stop-color="#fffbe8"/>
      <stop offset=".89" stop-color="#fffbe8" stop-opacity="0"/>
      <stop offset=".92" stop-color="#fffbe8" stop-opacity="0"/>
      <stop offset=".92" stop-color="#fffbe8"/>
      <stop offset="1" stop-color="#fffbe8"/>
    </linearGradient>
  </defs>
  <g id="Layer_2-2" data-name="Layer 2">
    <g>
      <g>
        <path class="cls-1" d="m12,188.52V9h44.87c3.29,59.84-3.29,119.68,0,179.52H12Z"/>
        <path class="cls-1" d="m105.9,188.52c-1.45-31.11,2.08-62.21,5.58-93.32,4.21-35.85,7.09-64.59,7.76-86.2h55.38c10.36,24.16,16.41,48.31,21.35,72.47,3.27,15.51,5.52,31.53,7.93,48.06,5.36-18.31,10.87-34.33,15.73-48.06,8.6-24.16,16.33-48.31,18.84-72.47h55.38c6.55,18.56,9.47,47.29,7.76,86.2-.99,31.11-2.32,62.21,5.06,93.32h-45.64c-8.03-44.67,1.92-89.33,3.01-134-6.72,24.92-13.3,42.72-16.87,53.14-9.86,26.95-18.94,53.91-21.78,80.86h-38.97c-11.76-26.95-17.59-53.91-23.21-80.86-2.59-11.7-4.98-29.5-9.35-53.14-.84,44.67-8.5,89.33-2.32,134h-45.64Z"/>
        <path class="cls-1" d="m352.47,188.52c-3.45-31.11,1.31-62.21,5.68-93.32,5.39-35.85,8.15-64.59,7.65-86.2h55.38c9.87,24.16,15.62,48.31,20.99,72.47,3.51,15.51,6.28,31.53,9.06,48.06,5.09-18.31,9.97-34.33,14.36-48.06,7.8-24.16,14.64-48.31,19.43-72.47h55.38c3.17,18.56,5.31,47.29,7.45,86.2,1.65,31.11,3.55,62.21,5.37,93.32h-45.64c-2.5-44.67.6-89.33.94-134-6.02,24.92-11.18,42.72-14.32,53.14-8.42,26.95-17.17,53.91-22.26,80.86h-38.97c-10.94-26.95-17.52-53.91-23.18-80.86-2.65-11.7-5-29.5-9.21-53.14-.9,44.67-9.09,89.33-2.48,134h-45.64Z"/>
      </g>
      <g>
        <path class="cls-4" d="m24,186.52V7h44.87c3.29,59.84-3.29,119.68,0,179.52H24Z"/>
        <path class="cls-4" d="m117.9,186.52c-1.45-31.11,2.08-62.21,5.58-93.32,4.21-35.85,7.09-64.59,7.76-86.2h55.38c10.36,24.16,16.41,48.31,21.35,72.47,3.27,15.51,5.52,31.53,7.93,48.06,5.36-18.31,10.87-34.33,15.73-48.06,8.6-24.16,16.33-48.31,18.84-72.47h55.38c6.55,18.56,9.47,47.29,7.76,86.2-.99,31.11-2.32,62.21,5.06,93.32h-45.64c-8.03-44.67,1.92-89.33,3.01-134-6.72,24.92-13.3,42.72-16.87,53.14-9.86,26.95-18.94,53.91-21.78,80.86h-38.97c-11.76-26.95-17.59-53.91-23.21-80.86-2.59-11.7-4.98-29.5-9.35-53.14-.84,44.67-8.5,89.33-2.32,134h-45.64Z"/>
        <path class="cls-4" d="m364.47,186.52c-3.45-31.11,1.31-62.21,5.68-93.32,5.39-35.85,8.15-64.59,7.65-86.2h55.38c9.87,24.16,15.62,48.31,20.99,72.47,3.51,15.51,6.28,31.53,9.06,48.06,5.09-18.31,9.97-34.33,14.36-48.06,7.8-24.16,14.64-48.31,19.43-72.47h55.38c3.17,18.56,5.31,47.29,7.45,86.2,1.65,31.11,3.55,62.21,5.37,93.32h-45.64c-2.5-44.67.6-89.33.94-134-6.02,24.92-11.18,42.72-14.32,53.14-8.42,26.95-17.17,53.91-22.26,80.86h-38.97c-10.94-26.95-17.52-53.91-23.18-80.86-2.65-11.7-5-29.5-9.21-53.14-.9,44.67-9.09,89.33-2.48,134h-45.64Z"/>
      </g>
      <g>
        <path class="cls-6" d="m33,182.52V3h44.87c3.29,59.84-3.29,119.68,0,179.52h-44.87Z"/>
        <path class="cls-6" d="m126.9,182.52c-1.45-31.11,2.08-62.21,5.58-93.32,4.21-35.85,7.09-64.59,7.76-86.2h55.38c10.36,24.16,16.41,48.31,21.35,72.47,3.27,15.51,5.52,31.53,7.93,48.06,5.36-18.31,10.87-34.33,15.73-48.06,8.6-24.16,16.33-48.31,18.84-72.47h55.38c6.55,18.56,9.47,47.29,7.76,86.2-.99,31.11-2.32,62.21,5.06,93.32h-45.64c-8.03-44.67,1.92-89.33,3.01-134-6.72,24.92-13.3,42.72-16.87,53.14-9.86,26.95-18.94,53.91-21.78,80.86h-38.97c-11.76-26.95-17.59-53.91-23.21-80.86-2.59-11.7-4.98-29.5-9.35-53.14-.84,44.67-8.5,89.33-2.32,134h-45.64Z"/>
        <path class="cls-6" d="m373.47,182.52c-3.45-31.11,1.31-62.21,5.68-93.32,5.39-35.85,8.15-64.59,7.65-86.2h55.38c9.87,24.16,15.62,48.31,20.99,72.47,3.51,15.51,6.28,31.53,9.06,48.06,5.09-18.31,9.97-34.33,14.36-48.06,7.8-24.16,14.64-48.31,19.43-72.47h55.38c3.17,18.56,5.31,47.29,7.45,86.2,1.65,31.11,3.55,62.21,5.37,93.32h-45.64c-2.5-44.67.6-89.33.94-134-6.02,24.92-11.18,42.72-14.32,53.14-8.42,26.95-17.17,53.91-22.26,80.86h-38.97c-10.94-26.95-17.52-53.91-23.18-80.86-2.65-11.7-5-29.5-9.21-53.14-.9,44.67-9.09,89.33-2.48,134h-45.64Z"/>
      </g>
      <g>
        <path class="cls-2" d="m26,185.52V6h44.87c3.29,59.84-3.29,119.68,0,179.52H26Z"/>
        <path class="cls-2" d="m119.9,185.52c-1.45-31.11,2.08-62.21,5.58-93.32,4.21-35.85,7.09-64.59,7.76-86.2h55.38c10.36,24.16,16.41,48.31,21.35,72.47,3.27,15.51,5.52,31.53,7.93,48.06,5.36-18.31,10.87-34.33,15.73-48.06,8.6-24.16,16.33-48.31,18.84-72.47h55.38c6.55,18.56,9.47,47.29,7.76,86.2-.99,31.11-2.32,62.21,5.06,93.32h-45.64c-8.03-44.67,1.92-89.33,3.01-134-6.72,24.92-13.3,42.72-16.87,53.14-9.86,26.95-18.94,53.91-21.78,80.86h-38.97c-11.76-26.95-17.59-53.91-23.21-80.86-2.59-11.7-4.98-29.5-9.35-53.14-.84,44.67-8.5,89.33-2.32,134h-45.64Z"/>
        <path class="cls-2" d="m366.47,185.52c-3.45-31.11,1.31-62.21,5.68-93.32,5.39-35.85,8.15-64.59,7.65-86.2h55.38c9.87,24.16,15.62,48.31,20.99,72.47,3.51,15.51,6.28,31.53,9.06,48.06,5.09-18.31,9.97-34.33,14.36-48.06,7.8-24.16,14.64-48.31,19.43-72.47h55.38c3.17,18.56,5.31,47.29,7.45,86.2,1.65,31.11,3.55,62.21,5.37,93.32h-45.64c-2.5-44.67.6-89.33.94-134-6.02,24.92-11.18,42.72-14.32,53.14-8.42,26.95-17.17,53.91-22.26,80.86h-38.97c-10.94-26.95-17.52-53.91-23.18-80.86-2.65-11.7-5-29.5-9.21-53.14-.9,44.67-9.09,89.33-2.48,134h-45.64Z"/>
      </g>
      <g>
        <path class="cls-3" d="m0,179.52V0h44.87c3.29,59.84-3.29,119.68,0,179.52H0Z"/>
        <path class="cls-3" d="m93.9,179.52c-1.45-31.11,2.08-62.21,5.58-93.32,4.21-35.85,7.09-64.59,7.76-86.2h55.38c10.36,24.16,16.41,48.31,21.35,72.47,3.27,15.51,5.52,31.53,7.93,48.06,5.36-18.31,10.87-34.33,15.73-48.06,8.6-24.16,16.33-48.31,18.84-72.47h55.38c6.55,18.56,9.47,47.29,7.76,86.2-.99,31.11-2.32,62.21,5.06,93.32h-45.64c-8.03-44.67,1.92-89.33,3.01-134-6.72,24.92-13.3,42.72-16.87,53.14-9.86,26.95-18.94,53.91-21.78,80.86h-38.97c-11.76-26.95-17.59-53.91-23.21-80.86-2.59-11.7-4.98-29.5-9.35-53.14-.84,44.67-8.5,89.33-2.32,134h-45.64Z"/>
        <path class="cls-3" d="m340.47,179.52c-3.45-31.11,1.31-62.21,5.68-93.32,5.39-35.85,8.15-64.59,7.65-86.2h55.38c9.87,24.16,15.62,48.31,20.99,72.47,3.51,15.51,6.28,31.53,9.06,48.06,5.09-18.31,9.97-34.33,14.36-48.06,7.8-24.16,14.64-48.31,19.43-72.47h55.38c3.17,18.56,5.31,47.29,7.45,86.2,1.65,31.11,3.55,62.21,5.37,93.32h-45.64c-2.5-44.67.6-89.33.94-134-6.02,24.92-11.18,42.72-14.32,53.14-8.42,26.95-17.17,53.91-22.26,80.86h-38.97c-10.94-26.95-17.52-53.91-23.18-80.86-2.65-11.7-5-29.5-9.21-53.14-.9,44.67-9.09,89.33-2.48,134h-45.64Z"/>
      </g>
      <g>
        <path class="cls-5" d="m13,182.52V3h44.87c3.29,59.84-3.29,119.68,0,179.52H13Z"/>
        <path class="cls-5" d="m106.9,182.52c-1.45-31.11,2.08-62.21,5.58-93.32,4.21-35.85,7.09-64.59,7.76-86.2h55.38c10.36,24.16,16.41,48.31,21.35,72.47,3.27,15.51,5.52,31.53,7.93,48.06,5.36-18.31,10.87-34.33,15.73-48.06,8.6-24.16,16.33-48.31,18.84-72.47h55.38c6.55,18.56,9.47,47.29,7.76,86.2-.99,31.11-2.32,62.21,5.06,93.32h-45.64c-8.03-44.67,1.92-89.33,3.01-134-6.72,24.92-13.3,42.72-16.87,53.14-9.86,26.95-18.94,53.91-21.78,80.86h-38.97c-11.76-26.95-17.59-53.91-23.21-80.86-2.59-11.7-4.98-29.5-9.35-53.14-.84,44.67-8.5,89.33-2.32,134h-45.64Z"/>
        <path class="cls-5" d="m353.47,182.52c-3.45-31.11,1.31-62.21,5.68-93.32,5.39-35.85,8.15-64.59,7.65-86.2h55.38c9.87,24.16,15.62,48.31,20.99,72.47,3.51,15.51,6.28,31.53,9.06,48.06,5.09-18.31,9.97-34.33,14.36-48.06,7.8-24.16,14.64-48.31,19.43-72.47h55.38c3.17,18.56,5.31,47.29,7.45,86.2,1.65,31.11,3.55,62.21,5.37,93.32h-45.64c-2.5-44.67.6-89.33.94-134-6.02,24.92-11.18,42.72-14.32,53.14-8.42,26.95-17.17,53.91-22.26,80.86h-38.97c-10.94-26.95-17.52-53.91-23.18-80.86-2.65-11.7-5-29.5-9.21-53.14-.9,44.67-9.09,89.33-2.48,134h-45.64Z"/>
      </g>
    </g>
  </g>
</svg>