<?xml version="1.0" encoding="UTF-8"?>
<svg id="Layer_2" data-name="Layer 2" xmlns="http://www.w3.org/2000/svg" xmlns:xlink="http://www.w3.org/1999/xlink" viewBox="0 0 629.82 193.6">
  <defs>
    <style>
      .cls-1 {
        fill: url(#New_Gradient_Swatch_copy_9);
      }

      .cls-2 {
        fill: url(#New_Gradient_Swatch_copy_10);
      }

      .cls-3 {
        fill: url(#New_Gradient_Swatch_copy_8);
      }

      .cls-4 {
        fill: url(#New_Gradient_Swatch_copy_7);
      }

      .cls-5 {
        fill: url(#New_Gradient_Swatch_copy_11);
      }

      .cls-6 {
        fill: url(#New_Gradient_Swatch_copy_12);
      }
    </style>
    <linearGradient id="New_Gradient_Swatch_copy_9" data-name="New Gradient Swatch copy 9" x1="326.41" y1="187.6" x2="326.41" y2="3" gradientTransform="translate(-16 6)" gradientUnits="userSpaceOnUse">
      <stop offset="0" stop-color="#2de5ef"/>
      <stop offset=".2" stop-color="#2de5ef"/>
      <stop offset=".2" stop-color="#2de5ef" stop-opacity="0"/>
      <stop offset=".25" stop-color="#2de5ef" stop-opacity="0"/>
      <stop offset=".25" stop-color="#2de5ef"/>
      <stop offset=".47" stop-color="#2de5ef"/>
      <stop offset=".47" stop-color="#2de5ef" stop-opacity="0"/>
      <stop offset=".89" stop-color="#2de5ef" stop-opacity="0"/>
      <stop offset=".89" stop-color="#2de5ef"/>
      <stop offset=".92" stop-color="#2de5ef"/>
      <stop offset=".92" stop-color="#2de5ef" stop-opacity="0"/>
    </linearGradient>
    <linearGradient id="New_Gradient_Swatch_copy_7" data-name="New Gradient Swatch copy 7" x1="326.41" y1="187.6" x2="326.41" y2="3" gradientTransform="translate(-4 4)" gradientUnits="userSpaceOnUse">
      <stop offset="0" stop-color="#ec397a"/>
      <stop offset=".2" stop-color="#ec397a"/>
      <stop offset=".2" stop-color="#ec397a" stop-opacity="0"/>
      <stop offset=".25" stop-color="#ec397a" stop-opacity="0"/>
      <stop offset=".25" stop-color="#ec397a"/>
      <stop offset=".47" stop-color="#ec397a"/>
      <stop offset=".47" stop-color="#ec397a" stop-opacity="0"/>
      <stop offset=".89" stop-color="#ec397a" stop-opacity="0"/>
      <stop offset=".89" stop-color="#ec397a"/>
      <stop offset=".92" stop-color="#ec397a"/>
      <stop offset=".92" stop-color="#ec397a" stop-opacity="0"/>
    </linearGradient>
    <linearGradient id="New_Gradient_Swatch_copy_12" data-name="New Gradient Swatch copy 12" x1="326.41" y1="187.6" x2="326.41" y2="3" gradientTransform="translate(5)" gradientUnits="userSpaceOnUse">
      <stop offset="0" stop-color="#fffbe8"/>
      <stop offset=".2" stop-color="#fffbe8"/>
      <stop offset=".2" stop-color="#fffbe8" stop-opacity="0"/>
      <stop offset=".25" stop-color="#fffbe8" stop-opacity="0"/>
      <stop offset=".25" stop-color="#fffbe8"/>
      <stop offset=".47" stop-color="#fffbe8"/>
      <stop offset=".47" stop-color="#fffbe8" stop-opacity="0"/>
      <stop offset=".89" stop-color="#fffbe8" stop-opacity="0"/>
      <stop offset=".89" stop-color="#fffbe8"/>
      <stop offset=".92" stop-color="#fffbe8"/>
      <stop offset=".92" stop-color="#fffbe8" stop-opacity="0"/>
    </linearGradient>
    <linearGradient id="New_Gradient_Swatch_copy_10" data-name="New Gradient Swatch copy 10" x1="326.41" y1="187.6" x2="326.41" y2="3" gradientTransform="translate(-2 3)" gradientUnits="userSpaceOnUse">
      <stop offset=".21" stop-color="#2de5ef" stop-opacity="0"/>
      <stop offset=".21" stop-color="#2de5ef"/>
      <stop offset=".25" stop-color="#2de5ef"/>
      <stop offset=".25" stop-color="#2de5ef" stop-opacity="0"/>
      <stop offset=".53" stop-color="#2de5ef" stop-opacity="0"/>
      <stop offset=".53" stop-color="#2de5ef"/>
      <stop offset=".89" stop-color="#2de5ef"/>
      <stop offset=".89" stop-color="#2de5ef" stop-opacity="0"/>
      <stop offset=".92" stop-color="#2de5ef" stop-opacity="0"/>
      <stop offset=".92" stop-color="#2de5ef"/>
      <stop offset="1" stop-color="#2de5ef"/>
    </linearGradient>
    <linearGradient id="New_Gradient_Swatch_copy_8" data-name="New Gradient Swatch copy 8" x1="326.41" y1="187.6" x2="326.41" y2="3" gradientTransform="translate(-28 -3)" gradientUnits="userSpaceOnUse">
      <stop offset=".21" stop-color="#ec397a" stop-opacity="0"/>
      <stop offset=".21" stop-color="#ec397a"/>
      <stop offset=".25" stop-color="#ec397a"/>
      <stop offset=".25" stop-color="#ec397a" stop-opacity="0"/>
      <stop offset=".53" stop-color="#ec397a" stop-opacity="0"/>
      <stop offset=".53" stop-color="#ec397a"/>
      <stop offset=".89" stop-color="#ec397a"/>
      <stop offset=".89" stop-color="#ec397a" stop-opacity="0"/>
      <stop offset=".92" stop-color="#ec397a" stop-opacity="0"/>
      <stop offset=".92" stop-color="#ec397a"/>
      <stop offset="1" stop-color="#ec397a"/>
    </linearGradient>
    <linearGradient id="New_Gradient_Swatch_copy_11" data-name="New Gradient Swatch copy 11" x1="326.41" y1="187.6" x2="326.41" y2="3" gradientTransform="translate(-15)" gradientUnits="userSpaceOnUse">
      <stop offset=".21" stop-color="#fffbe8" stop-opacity="0"/>
      <stop offset=".21" stop-color="#fffbe8"/>
      <stop offset=".25" stop-color="#fffbe8"/>
      <stop offset=".25" stop-color="#fffbe8" stop-opacity="0"/>
      <stop offset=".53" stop-color="#fffbe8" stop-opacity="0"/>
      <stop offset=".53" stop-color="#fffbe8"/>
      <stop offset=".89" stop-color="#fffbe8"/>
      <stop offset=".89" stop-color="#fffbe8" stop-opacity="0"/>
      <stop offset=".92" stop-color="#fffbe8" stop-opacity="0"/>
      <stop offset=".92" stop-color="#fffbe8"/>
      <stop offset="1" stop-color="#fffbe8"/>
    </linearGradient>
  </defs>
  <g id="Layer_2-2" data-name="Layer 2">
    <g>
      <g>
        <path class="cls-1" d="m12,186.74v-39.16c10.77,4.58,23.56,6.87,37.88,6.87,15.09,0,22.6-5.08,22.78-15.51.18-10.17-7.14-16.78-22.95-27.21-8.8-5.85-12.6-8.14-19.96-15.26-3.82-3.31-6.64-6.61-8.69-9.92-4.36-6.36-8.01-16.02-8.01-26.44-.01-15.51,5.83-27.72,17.16-36.62,12.12-9.66,28.48-14.49,49.49-14.49,17.16,0,32.05,2.54,44.61,7.37,1.18,12.97,1.46,25.94,1.27,38.9-10.86-4.58-23.11-6.87-36.67-6.87-15.66,0-23.48,5.09-23.62,15-.17,9.15,6.02,14.24,22.38,25.17,12.04,8.14,17.45,12.21,25.42,21.1,7.71,8.9,10.61,19.58,10.28,32.8-.74,33.56-19.44,51.11-62.13,51.11-17.7,0-34.23-2.29-49.23-6.87Z"/>
        <path class="cls-1" d="m223.23,193.6c-19.19,0-35.8-5.85-48.15-17.54-12.35-11.7-18.31-26.95-17.31-46.02,1.02-19.07,8.23-34.33,20.61-46.02,12.39-11.44,28.15-17.29,47.5-17.29,19.33,0,34.78,5.85,45.36,17.29,10.61,11.7,14.46,26.95,13.09,46.02-1.35,19.07-6.73,34.33-17.13,46.02-10.38,11.7-24.66,17.54-43.96,17.54Zm-3.13-35.09c6.38,0,11.15-2.54,15.03-7.88,3.64-5.34,5.66-12.21,6.21-20.6,1.21-17.29-5.55-28.22-18.17-28.22-12.53,0-21.57,10.93-22.66,28.22-.5,8.39,1.06,15.26,4.81,20.6,3.5,5.34,8.4,7.88,14.76,7.88Z"/>
        <path class="cls-1" d="m384.62,193.6c-19.16,0-35.93-5.85-48.63-17.54-12.68-11.7-18.84-26.95-17.48-46.02,1.38-19.07,9.08-34.33,21.55-46.02,12.51-11.44,28.11-17.29,47.25-17.29,19.13,0,34.4,5.85,45.06,17.29,10.67,11.7,14.93,26.95,13.85,46.02-1.06,19.07-6.61,34.33-17.29,46.02-10.67,11.7-25.05,17.54-44.32,17.54Zm-3.21-35.09c6.45,0,11.29-2.54,15.22-7.88,3.68-5.34,5.71-12.21,6.23-20.6,1.13-17.29-5.69-28.22-18.3-28.22-12.51,0-21.67,10.93-22.9,28.22-.56,8.39,1,15.26,4.79,20.6,3.54,5.34,8.51,7.88,14.95,7.88Z"/>
        <path class="cls-1" d="m489.8,191.06c-4.61-40.6.44-81.2,2.04-121.8h40.77c-.22,7.97-.54,15.93-.88,23.9,9.17-17.04,22.16-25.68,39.56-25.68,13.36,0,23.38,4.58,29.93,13.73,5.03,6.87,7.59,19.83,7.6,38.4v71.45h-43.2c-.91-19.16-.92-38.31-.61-57.47.18-10.42-.16-17.04-1.13-19.83-1.92-5.85-6.2-8.65-12.62-8.65-6.16,0-10.88,2.54-14.17,7.37-3,4.58-4.96,13.48-5.26,26.7-.37,17.29-.22,34.58,1.14,51.87h-43.17Z"/>
      </g>
      <g>
        <path class="cls-4" d="m24,184.74v-39.16c10.77,4.58,23.56,6.87,37.88,6.87,15.09,0,22.6-5.08,22.78-15.51.18-10.17-7.14-16.78-22.95-27.21-8.8-5.85-12.6-8.14-19.96-15.26-3.82-3.31-6.64-6.61-8.69-9.92-4.36-6.36-8.01-16.02-8.01-26.44-.01-15.51,5.83-27.72,17.16-36.62,12.12-9.66,28.48-14.49,49.49-14.49,17.16,0,32.05,2.54,44.61,7.37,1.18,12.97,1.46,25.94,1.27,38.9-10.86-4.58-23.11-6.87-36.67-6.87-15.66,0-23.48,5.09-23.62,15-.17,9.15,6.02,14.24,22.38,25.17,12.04,8.14,17.45,12.21,25.42,21.1,7.71,8.9,10.61,19.58,10.28,32.8-.74,33.56-19.44,51.11-62.13,51.11-17.7,0-34.23-2.29-49.23-6.87Z"/>
        <path class="cls-4" d="m235.23,191.6c-19.19,0-35.8-5.85-48.15-17.54-12.35-11.7-18.31-26.95-17.31-46.02,1.02-19.07,8.23-34.33,20.61-46.02,12.39-11.44,28.15-17.29,47.5-17.29,19.33,0,34.78,5.85,45.36,17.29,10.61,11.7,14.46,26.95,13.09,46.02-1.35,19.07-6.73,34.33-17.13,46.02-10.38,11.7-24.66,17.54-43.96,17.54Zm-3.13-35.09c6.38,0,11.15-2.54,15.03-7.88,3.64-5.34,5.66-12.21,6.21-20.6,1.21-17.29-5.55-28.22-18.17-28.22-12.53,0-21.57,10.93-22.66,28.22-.5,8.39,1.06,15.26,4.81,20.6,3.5,5.34,8.4,7.88,14.76,7.88Z"/>
        <path class="cls-4" d="m396.62,191.6c-19.16,0-35.93-5.85-48.63-17.54-12.68-11.7-18.84-26.95-17.48-46.02,1.38-19.07,9.08-34.33,21.55-46.02,12.51-11.44,28.11-17.29,47.25-17.29,19.13,0,34.4,5.85,45.06,17.29,10.67,11.7,14.93,26.95,13.85,46.02-1.06,19.07-6.61,34.33-17.29,46.02-10.67,11.7-25.05,17.54-44.32,17.54Zm-3.21-35.09c6.45,0,11.29-2.54,15.22-7.88,3.68-5.34,5.71-12.21,6.23-20.6,1.13-17.29-5.69-28.22-18.3-28.22-12.51,0-21.67,10.93-22.9,28.22-.56,8.39,1,15.26,4.79,20.6,3.54,5.34,8.51,7.88,14.95,7.88Z"/>
        <path class="cls-4" d="m501.8,189.06c-4.61-40.6.44-81.2,2.04-121.8h40.77c-.22,7.97-.54,15.93-.88,23.9,9.17-17.04,22.16-25.68,39.56-25.68,13.36,0,23.38,4.58,29.93,13.73,5.03,6.87,7.59,19.83,7.6,38.4v71.45h-43.2c-.91-19.16-.92-38.31-.61-57.47.18-10.42-.16-17.04-1.13-19.83-1.92-5.85-6.2-8.65-12.62-8.65-6.16,0-10.88,2.54-14.17,7.37-3,4.58-4.96,13.48-5.26,26.7-.37,17.29-.22,34.58,1.14,51.87h-43.17Z"/>
      </g>
      <g>
        <path class="cls-6" d="m33,180.74v-39.16c10.77,4.58,23.56,6.87,37.88,6.87,15.09,0,22.6-5.08,22.78-15.51.18-10.17-7.14-16.78-22.95-27.21-8.8-5.85-12.6-8.14-19.96-15.26-3.82-3.31-6.64-6.61-8.69-9.92-4.36-6.36-8.01-16.02-8.01-26.44-.01-15.51,5.83-27.72,17.16-36.62,12.12-9.66,28.48-14.49,49.49-14.49,17.16,0,32.05,2.54,44.61,7.37,1.18,12.97,1.46,25.94,1.27,38.9-10.86-4.58-23.11-6.87-36.67-6.87-15.66,0-23.48,5.09-23.62,15-.17,9.15,6.02,14.24,22.38,25.17,12.04,8.14,17.45,12.21,25.42,21.1,7.71,8.9,10.61,19.58,10.28,32.8-.74,33.56-19.44,51.11-62.13,51.11-17.7,0-34.23-2.29-49.23-6.87Z"/>
        <path class="cls-6" d="m244.23,187.6c-19.19,0-35.8-5.85-48.15-17.54-12.35-11.7-18.31-26.95-17.31-46.02,1.02-19.07,8.23-34.33,20.61-46.02,12.39-11.44,28.15-17.29,47.5-17.29,19.33,0,34.78,5.85,45.36,17.29,10.61,11.7,14.46,26.95,13.09,46.02-1.35,19.07-6.73,34.33-17.13,46.02-10.38,11.7-24.66,17.54-43.96,17.54Zm-3.13-35.09c6.38,0,11.15-2.54,15.03-7.88,3.64-5.34,5.66-12.21,6.21-20.6,1.21-17.29-5.55-28.22-18.17-28.22-12.53,0-21.57,10.93-22.66,28.22-.5,8.39,1.06,15.26,4.81,20.6,3.5,5.34,8.4,7.88,14.76,7.88Z"/>
        <path class="cls-6" d="m405.62,187.6c-19.16,0-35.93-5.85-48.63-17.54-12.68-11.7-18.84-26.95-17.48-46.02,1.38-19.07,9.08-34.33,21.55-46.02,12.51-11.44,28.11-17.29,47.25-17.29,19.13,0,34.4,5.85,45.06,17.29,10.67,11.7,14.93,26.95,13.85,46.02-1.06,19.07-6.61,34.33-17.29,46.02-10.67,11.7-25.05,17.54-44.32,17.54Zm-3.21-35.09c6.45,0,11.29-2.54,15.22-7.88,3.68-5.34,5.71-12.21,6.23-20.6,1.13-17.29-5.69-28.22-18.3-28.22-12.51,0-21.67,10.93-22.9,28.22-.56,8.39,1,15.26,4.79,20.6,3.54,5.34,8.51,7.88,14.95,7.88Z"/>
        <path class="cls-6" d="m510.8,185.06c-4.61-40.6.44-81.2,2.04-121.8h40.77c-.22,7.97-.54,15.93-.88,23.9,9.17-17.04,22.16-25.68,39.56-25.68,13.36,0,23.38,4.58,29.93,13.73,5.03,6.87,7.59,19.83,7.6,38.4v71.45h-43.2c-.91-19.16-.92-38.31-.61-57.47.18-10.42-.16-17.04-1.13-19.83-1.92-5.85-6.2-8.65-12.62-8.65-6.16,0-10.88,2.54-14.17,7.37-3,4.58-4.96,13.48-5.26,26.7-.37,17.29-.22,34.58,1.14,51.87h-43.17Z"/>
      </g>
      <g>
        <path class="cls-2" d="m26,183.74v-39.16c10.77,4.58,23.56,6.87,37.88,6.87,15.09,0,22.6-5.08,22.78-15.51.18-10.17-7.14-16.78-22.95-27.21-8.8-5.85-12.6-8.14-19.96-15.26-3.82-3.31-6.64-6.61-8.69-9.92-4.36-6.36-8.01-16.02-8.01-26.44-.01-15.51,5.83-27.72,17.16-36.62,12.12-9.66,28.48-14.49,49.49-14.49,17.16,0,32.05,2.54,44.61,7.37,1.18,12.97,1.46,25.94,1.27,38.9-10.86-4.58-23.11-6.87-36.67-6.87-15.66,0-23.48,5.09-23.62,15-.17,9.15,6.02,14.24,22.38,25.17,12.04,8.14,17.45,12.21,25.42,21.1,7.71,8.9,10.61,19.58,10.28,32.8-.74,33.56-19.44,51.11-62.13,51.11-17.7,0-34.23-2.29-49.23-6.87Z"/>
        <path class="cls-2" d="m237.23,190.6c-19.19,0-35.8-5.85-48.15-17.54-12.35-11.7-18.31-26.95-17.31-46.02,1.02-19.07,8.23-34.33,20.61-46.02,12.39-11.44,28.15-17.29,47.5-17.29,19.33,0,34.78,5.85,45.36,17.29,10.61,11.7,14.46,26.95,13.09,46.02-1.35,19.07-6.73,34.33-17.13,46.02-10.38,11.7-24.66,17.54-43.96,17.54Zm-3.13-35.09c6.38,0,11.15-2.54,15.03-7.88,3.64-5.34,5.66-12.21,6.21-20.6,1.21-17.29-5.55-28.22-18.17-28.22-12.53,0-21.57,10.93-22.66,28.22-.5,8.39,1.06,15.26,4.81,20.6,3.5,5.34,8.4,7.88,14.76,7.88Z"/>
        <path class="cls-2" d="m398.62,190.6c-19.16,0-35.93-5.85-48.63-17.54-12.68-11.7-18.84-26.95-17.48-46.02,1.38-19.07,9.08-34.33,21.55-46.02,12.51-11.44,28.11-17.29,47.25-17.29,19.13,0,34.4,5.85,45.06,17.29,10.67,11.7,14.93,26.95,13.85,46.02-1.06,19.07-6.61,34.33-17.29,46.02-10.67,11.7-25.05,17.54-44.32,17.54Zm-3.21-35.09c6.45,0,11.29-2.54,15.22-7.88,3.68-5.34,5.71-12.21,6.23-20.6,1.13-17.29-5.69-28.22-18.3-28.22-12.51,0-21.67,10.93-22.9,28.22-.56,8.39,1,15.26,4.79,20.6,3.54,5.34,8.51,7.88,14.95,7.88Z"/>
        <path class="cls-2" d="m503.8,188.06c-4.61-40.6.44-81.2,2.04-121.8h40.77c-.22,7.97-.54,15.93-.88,23.9,9.17-17.04,22.16-25.68,39.56-25.68,13.36,0,23.38,4.58,29.93,13.73,5.03,6.87,7.59,19.83,7.6,38.4v71.45h-43.2c-.91-19.16-.92-38.31-.61-57.47.18-10.42-.16-17.04-1.13-19.83-1.92-5.85-6.2-8.65-12.62-8.65-6.16,0-10.88,2.54-14.17,7.37-3,4.58-4.96,13.48-5.26,26.7-.37,17.29-.22,34.58,1.14,51.87h-43.17Z"/>
      </g>
      <g>
        <path class="cls-3" d="m0,177.74v-39.16c10.77,4.58,23.56,6.87,37.88,6.87,15.09,0,22.6-5.08,22.78-15.51.18-10.17-7.14-16.78-22.95-27.21-8.8-5.85-12.6-8.14-19.96-15.26-3.82-3.31-6.64-6.61-8.69-9.92-4.36-6.36-8.01-16.02-8.01-26.44-.01-15.51,5.83-27.72,17.16-36.62C30.32,4.83,46.69,0,67.69,0c17.16,0,32.05,2.54,44.61,7.37,1.18,12.97,1.46,25.94,1.27,38.9-10.86-4.58-23.11-6.87-36.67-6.87-15.66,0-23.48,5.09-23.62,15-.17,9.15,6.02,14.24,22.38,25.17,12.04,8.14,17.45,12.21,25.42,21.1,7.71,8.9,10.61,19.58,10.28,32.8-.74,33.56-19.44,51.11-62.13,51.11-17.7,0-34.23-2.29-49.23-6.87Z"/>
        <path class="cls-3" d="m211.23,184.6c-19.19,0-35.8-5.85-48.15-17.54-12.35-11.7-18.31-26.95-17.31-46.02,1.02-19.07,8.23-34.33,20.61-46.02,12.39-11.44,28.15-17.29,47.5-17.29,19.33,0,34.78,5.85,45.36,17.29,10.61,11.7,14.46,26.95,13.09,46.02-1.35,19.07-6.73,34.33-17.13,46.02-10.38,11.7-24.66,17.54-43.96,17.54Zm-3.13-35.09c6.38,0,11.15-2.54,15.03-7.88,3.64-5.34,5.66-12.21,6.21-20.6,1.21-17.29-5.55-28.22-18.17-28.22-12.53,0-21.57,10.93-22.66,28.22-.5,8.39,1.06,15.26,4.81,20.6,3.5,5.34,8.4,7.88,14.76,7.88Z"/>
        <path class="cls-3" d="m372.62,184.6c-19.16,0-35.93-5.85-48.63-17.54-12.68-11.7-18.84-26.95-17.48-46.02,1.38-19.07,9.08-34.33,21.55-46.02,12.51-11.44,28.11-17.29,47.25-17.29,19.13,0,34.4,5.85,45.06,17.29,10.67,11.7,14.93,26.95,13.85,46.02-1.06,19.07-6.61,34.33-17.29,46.02-10.67,11.7-25.05,17.54-44.32,17.54Zm-3.21-35.09c6.45,0,11.29-2.54,15.22-7.88,3.68-5.34,5.71-12.21,6.23-20.6,1.13-17.29-5.69-28.22-18.3-28.22-12.51,0-21.67,10.93-22.9,28.22-.56,8.39,1,15.26,4.79,20.6,3.54,5.34,8.51,7.88,14.95,7.88Z"/>
        <path class="cls-3" d="m477.8,182.06c-4.61-40.6.44-81.2,2.04-121.8h40.77c-.22,7.97-.54,15.93-.88,23.9,9.17-17.04,22.16-25.68,39.56-25.68,13.36,0,23.38,4.58,29.93,13.73,5.03,6.87,7.59,19.83,7.6,38.4v71.45h-43.2c-.91-19.16-.92-38.31-.61-57.47.18-10.42-.16-17.04-1.13-19.83-1.92-5.85-6.2-8.65-12.62-8.65-6.16,0-10.88,2.54-14.17,7.37-3,4.58-4.96,13.48-5.26,26.7-.37,17.29-.22,34.58,1.14,51.87h-43.17Z"/>
      </g>
      <g>
        <path class="cls-5" d="m13,180.74v-39.16c10.77,4.58,23.56,6.87,37.88,6.87,15.09,0,22.6-5.08,22.78-15.51.18-10.17-7.14-16.78-22.95-27.21-8.8-5.85-12.6-8.14-19.96-15.26-3.82-3.31-6.64-6.61-8.69-9.92-4.36-6.36-8.01-16.02-8.01-26.44-.01-15.51,5.83-27.72,17.16-36.62C43.32,7.83,59.69,3,80.69,3c17.16,0,32.05,2.54,44.61,7.37,1.18,12.97,1.46,25.94,1.27,38.9-10.86-4.58-23.11-6.87-36.67-6.87-15.66,0-23.48,5.09-23.62,15-.17,9.15,6.02,14.24,22.38,25.17,12.04,8.14,17.45,12.21,25.42,21.1,7.71,8.9,10.61,19.58,10.28,32.8-.74,33.56-19.44,51.11-62.13,51.11-17.7,0-34.23-2.29-49.23-6.87Z"/>
        <path class="cls-5" d="m224.23,187.6c-19.19,0-35.8-5.85-48.15-17.54-12.35-11.7-18.31-26.95-17.31-46.02,1.02-19.07,8.23-34.33,20.61-46.02,12.39-11.44,28.15-17.29,47.5-17.29,19.33,0,34.78,5.85,45.36,17.29,10.61,11.7,14.46,26.95,13.09,46.02-1.35,19.07-6.73,34.33-17.13,46.02-10.38,11.7-24.66,17.54-43.96,17.54Zm-3.13-35.09c6.38,0,11.15-2.54,15.03-7.88,3.64-5.34,5.66-12.21,6.21-20.6,1.21-17.29-5.55-28.22-18.17-28.22-12.53,0-21.57,10.93-22.66,28.22-.5,8.39,1.06,15.26,4.81,20.6,3.5,5.34,8.4,7.88,14.76,7.88Z"/>
        <path class="cls-5" d="m385.62,187.6c-19.16,0-35.93-5.85-48.63-17.54-12.68-11.7-18.84-26.95-17.48-46.02,1.38-19.07,9.08-34.33,21.55-46.02,12.51-11.44,28.11-17.29,47.25-17.29,19.13,0,34.4,5.85,45.06,17.29,10.67,11.7,14.93,26.95,13.85,46.02-1.06,19.07-6.61,34.33-17.29,46.02-10.67,11.7-25.05,17.54-44.32,17.54Zm-3.21-35.09c6.45,0,11.29-2.54,15.22-7.88,3.68-5.34,5.71-12.21,6.23-20.6,1.13-17.29-5.69-28.22-18.3-28.22-12.51,0-21.67,10.93-22.9,28.22-.56,8.39,1,15.26,4.79,20.6,3.54,5.34,8.51,7.88,14.95,7.88Z"/>
        <path class="cls-5" d="m490.8,185.06c-4.61-40.6.44-81.2,2.04-121.8h40.77c-.22,7.97-.54,15.93-.88,23.9,9.17-17.04,22.16-25.68,39.56-25.68,13.36,0,23.38,4.58,29.93,13.73,5.03,6.87,7.59,19.83,7.6,38.4v71.45h-43.2c-.91-19.16-.92-38.31-.61-57.47.18-10.42-.16-17.04-1.13-19.83-1.92-5.85-6.2-8.65-12.62-8.65-6.16,0-10.88,2.54-14.17,7.37-3,4.58-4.96,13.48-5.26,26.7-.37,17.29-.22,34.58,1.14,51.87h-43.17Z"/>
      </g>
    </g>
  </g>
</svg>